<?xml version="1.0" encoding="UTF-8" standalone="no"?>
<!DOCTYPE svg PUBLIC "-//W3C//DTD SVG 1.1//EN"
 "http://www.w3.org/Graphics/SVG/1.1/DTD/svg11.dtd">
<!-- Generated by graphviz version 2.43.0 (0)
 -->
<!-- Title: classes_reporting Pages: 1 -->
<svg width="9129pt" height="221pt"
 viewBox="0.00 0.00 9128.50 221.00" xmlns="http://www.w3.org/2000/svg" xmlns:xlink="http://www.w3.org/1999/xlink">
<g id="graph0" class="graph" transform="scale(1 1) rotate(0) translate(4 217)">
<title>classes_reporting</title>
<polygon fill="white" stroke="transparent" points="-4,4 -4,-217 9124.5,-217 9124.5,4 -4,4"/>
<!-- oscura.reporting.advanced.AccessibilityOptions -->
<g id="node1" class="node">
<title>oscura.reporting.advanced.AccessibilityOptions</title>
<polygon fill="#77aadd" stroke="#77aadd" points="0,-0.5 0,-36.5 161,-36.5 161,-0.5 0,-0.5"/>
<text text-anchor="start" x="8" y="-14.8" font-family="Times,serif" font-size="14.00">AccessibilityOptions</text>
</g>
<!-- oscura.reporting.config.AnalysisConfig -->
<g id="node2" class="node">
<title>oscura.reporting.config.AnalysisConfig</title>
<polygon fill="#77aadd" stroke="#77aadd" points="181.5,-88.5 181.5,-124.5 303.5,-124.5 303.5,-88.5 181.5,-88.5"/>
<text text-anchor="start" x="189.5" y="-102.8" font-family="Times,serif" font-size="14.00">AnalysisConfig</text>
</g>
<!-- oscura.reporting.config.DataOutputConfig -->
<g id="node24" class="node">
<title>oscura.reporting.config.DataOutputConfig</title>
<polygon fill="#77aadd" stroke="#77aadd" points="169.5,-176.5 169.5,-212.5 315.5,-212.5 315.5,-176.5 169.5,-176.5"/>
<text text-anchor="start" x="177.5" y="-190.8" font-family="Times,serif" font-size="14.00">DataOutputConfig</text>
</g>
<!-- oscura.reporting.config.AnalysisConfig&#45;&gt;oscura.reporting.config.DataOutputConfig -->
<g id="edge8" class="edge">
<title>oscura.reporting.config.AnalysisConfig&#45;&gt;oscura.reporting.config.DataOutputConfig</title>
<path fill="none" stroke="black" d="M242.5,-124.9C242.5,-136.75 242.5,-152.68 242.5,-166.21"/>
<polygon fill="black" stroke="black" points="242.5,-176.42 238,-166.42 242.5,-171.42 242.5,-166.42 242.5,-166.42 242.5,-166.42 242.5,-171.42 247,-166.42 242.5,-176.42 242.5,-176.42"/>
<text text-anchor="middle" x="285.5" y="-146.8" font-family="Times,serif" font-size="14.00" fill="green">data_output</text>
</g>
<!-- oscura.reporting.config.AnalysisDomain -->
<g id="node3" class="node">
<title>oscura.reporting.config.AnalysisDomain</title>
<polygon fill="#77aadd" stroke="#77aadd" points="322,-88.5 322,-124.5 453,-124.5 453,-88.5 322,-88.5"/>
<text text-anchor="start" x="330" y="-102.8" font-family="Times,serif" font-size="14.00">AnalysisDomain</text>
</g>
<!-- oscura.reporting.engine.AnalysisEngine -->
<g id="node4" class="node">
<title>oscura.reporting.engine.AnalysisEngine</title>
<polygon fill="#77aadd" stroke="#77aadd" points="179.5,-0.5 179.5,-36.5 305.5,-36.5 305.5,-0.5 179.5,-0.5"/>
<text text-anchor="start" x="187.5" y="-14.8" font-family="Times,serif" font-size="14.00">AnalysisEngine</text>
</g>
<!-- oscura.reporting.engine.AnalysisEngine&#45;&gt;oscura.reporting.config.AnalysisConfig -->
<g id="edge6" class="edge">
<title>oscura.reporting.engine.AnalysisEngine&#45;&gt;oscura.reporting.config.AnalysisConfig</title>
<path fill="none" stroke="black" d="M242.5,-36.9C242.5,-48.75 242.5,-64.68 242.5,-78.21"/>
<polygon fill="black" stroke="black" points="242.5,-88.42 238,-78.42 242.5,-83.42 242.5,-78.42 242.5,-78.42 242.5,-78.42 242.5,-83.42 247,-78.42 242.5,-88.42 242.5,-88.42"/>
<text text-anchor="middle" x="264" y="-58.8" font-family="Times,serif" font-size="14.00" fill="green">config</text>
</g>
<!-- oscura.reporting.config.AnalysisError -->
<g id="node5" class="node">
<title>oscura.reporting.config.AnalysisError</title>
<polygon fill="#77aadd" stroke="#77aadd" points="330,-0.5 330,-36.5 445,-36.5 445,-0.5 330,-0.5"/>
<text text-anchor="start" x="338" y="-14.8" font-family="Times,serif" font-size="14.00">AnalysisError</text>
</g>
<!-- oscura.reporting.config.AnalysisError&#45;&gt;oscura.reporting.config.AnalysisDomain -->
<g id="edge7" class="edge">
<title>oscura.reporting.config.AnalysisError&#45;&gt;oscura.reporting.config.AnalysisDomain</title>
<path fill="none" stroke="black" d="M387.5,-36.9C387.5,-48.75 387.5,-64.68 387.5,-78.21"/>
<polygon fill="black" stroke="black" points="387.5,-88.42 383,-78.42 387.5,-83.42 387.5,-78.42 387.5,-78.42 387.5,-78.42 387.5,-83.42 392,-78.42 387.5,-88.42 387.5,-88.42"/>
<text text-anchor="middle" x="414" y="-58.8" font-family="Times,serif" font-size="14.00" fill="green">domain</text>
</g>
<!-- oscura.reporting.config.AnalysisResult -->
<g id="node6" class="node">
<title>oscura.reporting.config.AnalysisResult</title>
<polygon fill="#77aadd" stroke="#77aadd" points="463.5,-0.5 463.5,-36.5 585.5,-36.5 585.5,-0.5 463.5,-0.5"/>
<text text-anchor="start" x="471.5" y="-14.8" font-family="Times,serif" font-size="14.00">AnalysisResult</text>
</g>
<!-- oscura.reporting.config.InputType -->
<g id="node34" class="node">
<title>oscura.reporting.config.InputType</title>
<polygon fill="#77aadd" stroke="#77aadd" points="480,-88.5 480,-124.5 569,-124.5 569,-88.5 480,-88.5"/>
<text text-anchor="start" x="488" y="-102.8" font-family="Times,serif" font-size="14.00">InputType</text>
</g>
<!-- oscura.reporting.config.AnalysisResult&#45;&gt;oscura.reporting.config.InputType -->
<g id="edge9" class="edge">
<title>oscura.reporting.config.AnalysisResult&#45;&gt;oscura.reporting.config.InputType</title>
<path fill="none" stroke="black" d="M524.5,-36.9C524.5,-48.75 524.5,-64.68 524.5,-78.21"/>
<polygon fill="black" stroke="black" points="524.5,-88.42 520,-78.42 524.5,-83.42 524.5,-78.42 524.5,-78.42 524.5,-78.42 524.5,-83.42 529,-78.42 524.5,-88.42 524.5,-88.42"/>
<text text-anchor="middle" x="562.5" y="-58.8" font-family="Times,serif" font-size="14.00" fill="green">input_type</text>
</g>
<!-- oscura.reporting.advanced.Annotation -->
<g id="node7" class="node">
<title>oscura.reporting.advanced.Annotation</title>
<polygon fill="#77aadd" stroke="#77aadd" points="604,-0.5 604,-36.5 699,-36.5 699,-0.5 604,-0.5"/>
<text text-anchor="start" x="612" y="-14.8" font-family="Times,serif" font-size="14.00">Annotation</text>
</g>
<!-- oscura.reporting.advanced.AnnotationManager -->
<g id="node8" class="node">
<title>oscura.reporting.advanced.AnnotationManager</title>
<polygon fill="#77aadd" stroke="#77aadd" points="717.5,-0.5 717.5,-36.5 875.5,-36.5 875.5,-0.5 717.5,-0.5"/>
<text text-anchor="start" x="725.5" y="-14.8" font-family="Times,serif" font-size="14.00">AnnotationManager</text>
</g>
<!-- oscura.reporting.advanced.ApprovalRecord -->
<g id="node9" class="node">
<title>oscura.reporting.advanced.ApprovalRecord</title>
<polygon fill="#77aadd" stroke="#77aadd" points="894,-0.5 894,-36.5 1025,-36.5 1025,-0.5 894,-0.5"/>
<text text-anchor="start" x="902" y="-14.8" font-family="Times,serif" font-size="14.00">ApprovalRecord</text>
</g>
<!-- oscura.reporting.advanced.ApprovalStatus -->
<g id="node10" class="node">
<title>oscura.reporting.advanced.ApprovalStatus</title>
<polygon fill="#77aadd" stroke="#77aadd" points="896,-88.5 896,-124.5 1023,-124.5 1023,-88.5 896,-88.5"/>
<text text-anchor="start" x="904" y="-102.8" font-family="Times,serif" font-size="14.00">ApprovalStatus</text>
</g>
<!-- oscura.reporting.advanced.ApprovalRecord&#45;&gt;oscura.reporting.advanced.ApprovalStatus -->
<g id="edge1" class="edge">
<title>oscura.reporting.advanced.ApprovalRecord&#45;&gt;oscura.reporting.advanced.ApprovalStatus</title>
<path fill="none" stroke="black" d="M959.5,-36.9C959.5,-48.75 959.5,-64.68 959.5,-78.21"/>
<polygon fill="black" stroke="black" points="959.5,-88.42 955,-78.42 959.5,-83.42 959.5,-78.42 959.5,-78.42 959.5,-78.42 959.5,-83.42 964,-78.42 959.5,-88.42 959.5,-88.42"/>
<text text-anchor="middle" x="982" y="-58.8" font-family="Times,serif" font-size="14.00" fill="green">status</text>
</g>
<!-- oscura.reporting.advanced.ApprovalWorkflow -->
<g id="node11" class="node">
<title>oscura.reporting.advanced.ApprovalWorkflow</title>
<polygon fill="#77aadd" stroke="#77aadd" points="1043.5,-0.5 1043.5,-36.5 1189.5,-36.5 1189.5,-0.5 1043.5,-0.5"/>
<text text-anchor="start" x="1051.5" y="-14.8" font-family="Times,serif" font-size="14.00">ApprovalWorkflow</text>
</g>
<!-- oscura.reporting.advanced.ArchivedReport -->
<g id="node12" class="node">
<title>oscura.reporting.advanced.ArchivedReport</title>
<polygon fill="#77aadd" stroke="#77aadd" points="1207.5,-0.5 1207.5,-36.5 1335.5,-36.5 1335.5,-0.5 1207.5,-0.5"/>
<text text-anchor="start" x="1215.5" y="-14.8" font-family="Times,serif" font-size="14.00">ArchivedReport</text>
</g>
<!-- oscura.reporting.content.filtering.AudienceType -->
<g id="node13" class="node">
<title>oscura.reporting.content.filtering.AudienceType</title>
<polygon fill="#77aadd" stroke="#77aadd" points="1294.5,-88.5 1294.5,-124.5 1410.5,-124.5 1410.5,-88.5 1294.5,-88.5"/>
<text text-anchor="start" x="1302.5" y="-102.8" font-family="Times,serif" font-size="14.00">AudienceType</text>
</g>
<!-- oscura.reporting.advanced.AuditEntry -->
<g id="node14" class="node">
<title>oscura.reporting.advanced.AuditEntry</title>
<polygon fill="#77aadd" stroke="#77aadd" points="1485,-0.5 1485,-36.5 1580,-36.5 1580,-0.5 1485,-0.5"/>
<text text-anchor="start" x="1493" y="-14.8" font-family="Times,serif" font-size="14.00">AuditEntry</text>
</g>
<!-- oscura.reporting.advanced.AuditTrail -->
<g id="node15" class="node">
<title>oscura.reporting.advanced.AuditTrail</title>
<polygon fill="#77aadd" stroke="#77aadd" points="1598.5,-0.5 1598.5,-36.5 1686.5,-36.5 1686.5,-0.5 1598.5,-0.5"/>
<text text-anchor="start" x="1606.5" y="-14.8" font-family="Times,serif" font-size="14.00">AuditTrail</text>
</g>
<!-- oscura.reporting.batch.BatchReportResult -->
<g id="node16" class="node">
<title>oscura.reporting.batch.BatchReportResult</title>
<polygon fill="#77aadd" stroke="#77aadd" points="1704.5,-0.5 1704.5,-36.5 1856.5,-36.5 1856.5,-0.5 1704.5,-0.5"/>
<text text-anchor="start" x="1712.5" y="-14.8" font-family="Times,serif" font-size="14.00">BatchReportResult</text>
</g>
<!-- oscura.reporting.standards.ColorScheme -->
<g id="node17" class="node">
<title>oscura.reporting.standards.ColorScheme</title>
<polygon fill="#77aadd" stroke="#77aadd" points="1890,-88.5 1890,-124.5 2001,-124.5 2001,-88.5 1890,-88.5"/>
<text text-anchor="start" x="1898" y="-102.8" font-family="Times,serif" font-size="14.00">ColorScheme</text>
</g>
<!-- oscura.reporting.formatting.standards.ColorScheme -->
<g id="node18" class="node">
<title>oscura.reporting.formatting.standards.ColorScheme</title>
<polygon fill="#77aadd" stroke="#77aadd" points="2050,-88.5 2050,-124.5 2161,-124.5 2161,-88.5 2050,-88.5"/>
<text text-anchor="start" x="2058" y="-102.8" font-family="Times,serif" font-size="14.00">ColorScheme</text>
</g>
<!-- oscura.reporting.advanced.ComplianceChecker -->
<g id="node19" class="node">
<title>oscura.reporting.advanced.ComplianceChecker</title>
<polygon fill="#77aadd" stroke="#77aadd" points="2194.5,-0.5 2194.5,-36.5 2352.5,-36.5 2352.5,-0.5 2194.5,-0.5"/>
<text text-anchor="start" x="2202.5" y="-14.8" font-family="Times,serif" font-size="14.00">ComplianceChecker</text>
</g>
<!-- oscura.reporting.advanced.ComplianceResult -->
<g id="node20" class="node">
<title>oscura.reporting.advanced.ComplianceResult</title>
<polygon fill="#77aadd" stroke="#77aadd" points="2370.5,-0.5 2370.5,-36.5 2516.5,-36.5 2516.5,-0.5 2370.5,-0.5"/>
<text text-anchor="start" x="2378.5" y="-14.8" font-family="Times,serif" font-size="14.00">ComplianceResult</text>
</g>
<!-- oscura.reporting.advanced.ComplianceRule -->
<g id="node21" class="node">
<title>oscura.reporting.advanced.ComplianceRule</title>
<polygon fill="#77aadd" stroke="#77aadd" points="2534.5,-0.5 2534.5,-36.5 2666.5,-36.5 2666.5,-0.5 2534.5,-0.5"/>
<text text-anchor="start" x="2542.5" y="-14.8" font-family="Times,serif" font-size="14.00">ComplianceRule</text>
</g>
<!-- oscura.reporting.content.filtering.ContentFilter -->
<g id="node22" class="node">
<title>oscura.reporting.content.filtering.ContentFilter</title>
<polygon fill="#77aadd" stroke="#77aadd" points="1354,-0.5 1354,-36.5 1467,-36.5 1467,-0.5 1354,-0.5"/>
<text text-anchor="start" x="1362" y="-14.8" font-family="Times,serif" font-size="14.00">ContentFilter</text>
</g>
<!-- oscura.reporting.content.filtering.ContentFilter&#45;&gt;oscura.reporting.content.filtering.AudienceType -->
<g id="edge10" class="edge">
<title>oscura.reporting.content.filtering.ContentFilter&#45;&gt;oscura.reporting.content.filtering.AudienceType</title>
<path fill="none" stroke="black" d="M1385.56,-36.63C1379.29,-41.92 1373.05,-48.17 1368.5,-55 1363.84,-61.99 1360.46,-70.43 1358.05,-78.39"/>
<polygon fill="black" stroke="black" points="1355.49,-88.07 1353.7,-77.25 1356.77,-83.24 1358.05,-78.4 1358.05,-78.4 1358.05,-78.4 1356.77,-83.24 1362.4,-79.56 1355.49,-88.07 1355.49,-88.07"/>
<text text-anchor="middle" x="1400.5" y="-58.8" font-family="Times,serif" font-size="14.00" fill="green">audience</text>
</g>
<!-- oscura.reporting.formatting.standards.Severity -->
<g id="node65" class="node">
<title>oscura.reporting.formatting.standards.Severity</title>
<polygon fill="#77aadd" stroke="#77aadd" points="1429,-88.5 1429,-124.5 1506,-124.5 1506,-88.5 1429,-88.5"/>
<text text-anchor="start" x="1437" y="-102.8" font-family="Times,serif" font-size="14.00">Severity</text>
</g>
<!-- oscura.reporting.content.filtering.ContentFilter&#45;&gt;oscura.reporting.formatting.standards.Severity -->
<g id="edge14" class="edge">
<title>oscura.reporting.content.filtering.ContentFilter&#45;&gt;oscura.reporting.formatting.standards.Severity</title>
<path fill="none" stroke="black" d="M1422.03,-36.9C1430.2,-49.22 1441.29,-65.95 1450.47,-79.8"/>
<polygon fill="black" stroke="black" points="1456.18,-88.42 1446.9,-82.57 1453.41,-84.25 1450.65,-80.08 1450.65,-80.08 1450.65,-80.08 1453.41,-84.25 1454.4,-77.59 1456.18,-88.42 1456.18,-88.42"/>
<text text-anchor="middle" x="1509" y="-58.8" font-family="Times,serif" font-size="14.00" fill="green">severity_threshold</text>
</g>
<!-- oscura.reporting.advanced.CustomTemplate -->
<g id="node23" class="node">
<title>oscura.reporting.advanced.CustomTemplate</title>
<polygon fill="#77aadd" stroke="#77aadd" points="2685,-0.5 2685,-36.5 2822,-36.5 2822,-0.5 2685,-0.5"/>
<text text-anchor="start" x="2693" y="-14.8" font-family="Times,serif" font-size="14.00">CustomTemplate</text>
</g>
<!-- oscura.reporting.advanced.DistributionChannel -->
<g id="node25" class="node">
<title>oscura.reporting.advanced.DistributionChannel</title>
<polygon fill="#77aadd" stroke="#77aadd" points="2834,-88.5 2834,-124.5 2995,-124.5 2995,-88.5 2834,-88.5"/>
<text text-anchor="start" x="2842" y="-102.8" font-family="Times,serif" font-size="14.00">DistributionChannel</text>
</g>
<!-- oscura.reporting.advanced.DistributionConfig -->
<g id="node26" class="node">
<title>oscura.reporting.advanced.DistributionConfig</title>
<polygon fill="#77aadd" stroke="#77aadd" points="2840,-0.5 2840,-36.5 2989,-36.5 2989,-0.5 2840,-0.5"/>
<text text-anchor="start" x="2848" y="-14.8" font-family="Times,serif" font-size="14.00">DistributionConfig</text>
</g>
<!-- oscura.reporting.advanced.DistributionConfig&#45;&gt;oscura.reporting.advanced.DistributionChannel -->
<g id="edge2" class="edge">
<title>oscura.reporting.advanced.DistributionConfig&#45;&gt;oscura.reporting.advanced.DistributionChannel</title>
<path fill="none" stroke="black" d="M2914.5,-36.9C2914.5,-48.75 2914.5,-64.68 2914.5,-78.21"/>
<polygon fill="black" stroke="black" points="2914.5,-88.42 2910,-78.42 2914.5,-83.42 2914.5,-78.42 2914.5,-78.42 2914.5,-78.42 2914.5,-83.42 2919,-78.42 2914.5,-88.42 2914.5,-88.42"/>
<text text-anchor="middle" x="2942.5" y="-58.8" font-family="Times,serif" font-size="14.00" fill="green">channel</text>
</g>
<!-- oscura.reporting.config.DomainConfig -->
<g id="node27" class="node">
<title>oscura.reporting.config.DomainConfig</title>
<polygon fill="#77aadd" stroke="#77aadd" points="3007,-0.5 3007,-36.5 3124,-36.5 3124,-0.5 3007,-0.5"/>
<text text-anchor="start" x="3015" y="-14.8" font-family="Times,serif" font-size="14.00">DomainConfig</text>
</g>
<!-- oscura.reporting.standards.ExecutiveSummary -->
<g id="node28" class="node">
<title>oscura.reporting.standards.ExecutiveSummary</title>
<polygon fill="#77aadd" stroke="#77aadd" points="3142.5,-0.5 3142.5,-36.5 3298.5,-36.5 3298.5,-0.5 3142.5,-0.5"/>
<text text-anchor="start" x="3150.5" y="-14.8" font-family="Times,serif" font-size="14.00">ExecutiveSummary</text>
</g>
<!-- oscura.reporting.content.executive.ExecutiveSummary -->
<g id="node29" class="node">
<title>oscura.reporting.content.executive.ExecutiveSummary</title>
<polygon fill="#77aadd" stroke="#77aadd" points="3316.5,-0.5 3316.5,-36.5 3472.5,-36.5 3472.5,-0.5 3316.5,-0.5"/>
<text text-anchor="start" x="3324.5" y="-14.8" font-family="Times,serif" font-size="14.00">ExecutiveSummary</text>
</g>
<!-- oscura.reporting.summary_generator.Finding -->
<g id="node30" class="node">
<title>oscura.reporting.summary_generator.Finding</title>
<polygon fill="#77aadd" stroke="#77aadd" points="3491,-0.5 3491,-36.5 3562,-36.5 3562,-0.5 3491,-0.5"/>
<text text-anchor="start" x="3499" y="-14.8" font-family="Times,serif" font-size="14.00">Finding</text>
</g>
<!-- oscura.reporting.standards.FormatStandards -->
<g id="node31" class="node">
<title>oscura.reporting.standards.FormatStandards</title>
<polygon fill="#77aadd" stroke="#77aadd" points="1874.5,-0.5 1874.5,-36.5 2016.5,-36.5 2016.5,-0.5 1874.5,-0.5"/>
<text text-anchor="start" x="1882.5" y="-14.8" font-family="Times,serif" font-size="14.00">FormatStandards</text>
</g>
<!-- oscura.reporting.standards.FormatStandards&#45;&gt;oscura.reporting.standards.ColorScheme -->
<g id="edge15" class="edge">
<title>oscura.reporting.standards.FormatStandards&#45;&gt;oscura.reporting.standards.ColorScheme</title>
<path fill="none" stroke="black" d="M1945.5,-36.9C1945.5,-48.75 1945.5,-64.68 1945.5,-78.21"/>
<polygon fill="black" stroke="black" points="1945.5,-88.42 1941,-78.42 1945.5,-83.42 1945.5,-78.42 1945.5,-78.42 1945.5,-78.42 1945.5,-83.42 1950,-78.42 1945.5,-88.42 1945.5,-88.42"/>
<text text-anchor="middle" x="1994" y="-58.8" font-family="Times,serif" font-size="14.00" fill="green">color_scheme</text>
</g>
<!-- oscura.reporting.formatting.standards.FormatStandards -->
<g id="node32" class="node">
<title>oscura.reporting.formatting.standards.FormatStandards</title>
<polygon fill="#77aadd" stroke="#77aadd" points="2034.5,-0.5 2034.5,-36.5 2176.5,-36.5 2176.5,-0.5 2034.5,-0.5"/>
<text text-anchor="start" x="2042.5" y="-14.8" font-family="Times,serif" font-size="14.00">FormatStandards</text>
</g>
<!-- oscura.reporting.formatting.standards.FormatStandards&#45;&gt;oscura.reporting.formatting.standards.ColorScheme -->
<g id="edge13" class="edge">
<title>oscura.reporting.formatting.standards.FormatStandards&#45;&gt;oscura.reporting.formatting.standards.ColorScheme</title>
<path fill="none" stroke="black" d="M2105.5,-36.9C2105.5,-48.75 2105.5,-64.68 2105.5,-78.21"/>
<polygon fill="black" stroke="black" points="2105.5,-88.42 2101,-78.42 2105.5,-83.42 2105.5,-78.42 2105.5,-78.42 2105.5,-78.42 2105.5,-83.42 2110,-78.42 2105.5,-88.42 2105.5,-88.42"/>
<text text-anchor="middle" x="2127" y="-58.8" font-family="Times,serif" font-size="14.00" fill="green">colors</text>
</g>
<!-- oscura.reporting.index.IndexGenerator -->
<g id="node33" class="node">
<title>oscura.reporting.index.IndexGenerator</title>
<polygon fill="#77aadd" stroke="#77aadd" points="3580,-0.5 3580,-36.5 3709,-36.5 3709,-0.5 3580,-0.5"/>
<text text-anchor="start" x="3588" y="-14.8" font-family="Times,serif" font-size="14.00">IndexGenerator</text>
</g>
<!-- oscura.reporting.advanced.InteractiveElement -->
<g id="node35" class="node">
<title>oscura.reporting.advanced.InteractiveElement</title>
<polygon fill="#77aadd" stroke="#77aadd" points="3727,-0.5 3727,-36.5 3882,-36.5 3882,-0.5 3727,-0.5"/>
<text text-anchor="start" x="3735" y="-14.8" font-family="Times,serif" font-size="14.00">InteractiveElement</text>
</g>
<!-- oscura.reporting.advanced.InteractiveElementType -->
<g id="node36" class="node">
<title>oscura.reporting.advanced.InteractiveElementType</title>
<polygon fill="#77aadd" stroke="#77aadd" points="3710,-88.5 3710,-124.5 3899,-124.5 3899,-88.5 3710,-88.5"/>
<text text-anchor="start" x="3718" y="-102.8" font-family="Times,serif" font-size="14.00">InteractiveElementType</text>
</g>
<!-- oscura.reporting.advanced.InteractiveElement&#45;&gt;oscura.reporting.advanced.InteractiveElementType -->
<g id="edge3" class="edge">
<title>oscura.reporting.advanced.InteractiveElement&#45;&gt;oscura.reporting.advanced.InteractiveElementType</title>
<path fill="none" stroke="black" d="M3804.5,-36.9C3804.5,-48.75 3804.5,-64.68 3804.5,-78.21"/>
<polygon fill="black" stroke="black" points="3804.5,-88.42 3800,-78.42 3804.5,-83.42 3804.5,-78.42 3804.5,-78.42 3804.5,-78.42 3804.5,-83.42 3809,-78.42 3804.5,-88.42 3804.5,-88.42"/>
<text text-anchor="middle" x="3820.5" y="-58.8" font-family="Times,serif" font-size="14.00" fill="green">type</text>
</g>
<!-- oscura.reporting.advanced.LocaleStrings -->
<g id="node37" class="node">
<title>oscura.reporting.advanced.LocaleStrings</title>
<polygon fill="#77aadd" stroke="#77aadd" points="3900,-0.5 3900,-36.5 4015,-36.5 4015,-0.5 3900,-0.5"/>
<text text-anchor="start" x="3908" y="-14.8" font-family="Times,serif" font-size="14.00">LocaleStrings</text>
</g>
<!-- oscura.reporting.content.minimal.MinimalContent -->
<g id="node38" class="node">
<title>oscura.reporting.content.minimal.MinimalContent</title>
<polygon fill="#77aadd" stroke="#77aadd" points="4033.5,-0.5 4033.5,-36.5 4165.5,-36.5 4165.5,-0.5 4033.5,-0.5"/>
<text text-anchor="start" x="4041.5" y="-14.8" font-family="Times,serif" font-size="14.00">MinimalContent</text>
</g>
<!-- oscura.reporting.core_formats.multi_format.MultiFormatRenderer -->
<g id="node39" class="node">
<title>oscura.reporting.core_formats.multi_format.MultiFormatRenderer</title>
<polygon fill="#77aadd" stroke="#77aadd" points="4184,-0.5 4184,-36.5 4357,-36.5 4357,-0.5 4184,-0.5"/>
<text text-anchor="start" x="4192" y="-14.8" font-family="Times,serif" font-size="14.00">MultiFormatRenderer</text>
</g>
<!-- oscura.reporting.formatting.numbers.NumberFormatter -->
<g id="node40" class="node">
<title>oscura.reporting.formatting.numbers.NumberFormatter</title>
<polygon fill="#77aadd" stroke="#77aadd" points="4375.5,-0.5 4375.5,-36.5 4523.5,-36.5 4523.5,-0.5 4375.5,-0.5"/>
<text text-anchor="start" x="4383.5" y="-14.8" font-family="Times,serif" font-size="14.00">NumberFormatter</text>
</g>
<!-- oscura.reporting.output.OutputManager -->
<g id="node41" class="node">
<title>oscura.reporting.output.OutputManager</title>
<polygon fill="#77aadd" stroke="#77aadd" points="4542,-0.5 4542,-36.5 4673,-36.5 4673,-0.5 4542,-0.5"/>
<text text-anchor="start" x="4550" y="-14.8" font-family="Times,serif" font-size="14.00">OutputManager</text>
</g>
<!-- oscura.reporting.renderers.pdf.PDFRenderer -->
<g id="node42" class="node">
<title>oscura.reporting.renderers.pdf.PDFRenderer</title>
<polygon fill="#77aadd" stroke="#77aadd" points="4691.5,-0.5 4691.5,-36.5 4805.5,-36.5 4805.5,-0.5 4691.5,-0.5"/>
<text text-anchor="start" x="4699.5" y="-14.8" font-family="Times,serif" font-size="14.00">PDFRenderer</text>
</g>
<!-- oscura.reporting.pptx_export.PPTXPresentation -->
<g id="node43" class="node">
<title>oscura.reporting.pptx_export.PPTXPresentation</title>
<polygon fill="#77aadd" stroke="#77aadd" points="4823.5,-0.5 4823.5,-36.5 4969.5,-36.5 4969.5,-0.5 4823.5,-0.5"/>
<text text-anchor="start" x="4831.5" y="-14.8" font-family="Times,serif" font-size="14.00">PPTXPresentation</text>
</g>
<!-- oscura.reporting.pptx_export.PPTXSlide -->
<g id="node44" class="node">
<title>oscura.reporting.pptx_export.PPTXSlide</title>
<polygon fill="#77aadd" stroke="#77aadd" points="4988,-0.5 4988,-36.5 5079,-36.5 5079,-0.5 4988,-0.5"/>
<text text-anchor="start" x="4996" y="-14.8" font-family="Times,serif" font-size="14.00">PPTXSlide</text>
</g>
<!-- oscura.reporting.plots.PlotGenerator -->
<g id="node45" class="node">
<title>oscura.reporting.plots.PlotGenerator</title>
<polygon fill="#77aadd" stroke="#77aadd" points="5097.5,-0.5 5097.5,-36.5 5215.5,-36.5 5215.5,-0.5 5097.5,-0.5"/>
<text text-anchor="start" x="5105.5" y="-14.8" font-family="Times,serif" font-size="14.00">PlotGenerator</text>
</g>
<!-- oscura.reporting.config.ProgressInfo -->
<g id="node46" class="node">
<title>oscura.reporting.config.ProgressInfo</title>
<polygon fill="#77aadd" stroke="#77aadd" points="5233.5,-0.5 5233.5,-36.5 5341.5,-36.5 5341.5,-0.5 5233.5,-0.5"/>
<text text-anchor="start" x="5241.5" y="-14.8" font-family="Times,serif" font-size="14.00">ProgressInfo</text>
</g>
<!-- oscura.reporting.auto_report.Report -->
<g id="node47" class="node">
<title>oscura.reporting.auto_report.Report</title>
<polygon fill="#77aadd" stroke="#77aadd" points="5360,-0.5 5360,-36.5 5425,-36.5 5425,-0.5 5360,-0.5"/>
<text text-anchor="start" x="5368" y="-14.8" font-family="Times,serif" font-size="14.00">Report</text>
</g>
<!-- oscura.reporting.auto_report.ReportMetadata -->
<g id="node54" class="node">
<title>oscura.reporting.auto_report.ReportMetadata</title>
<polygon fill="#77aadd" stroke="#77aadd" points="5325.5,-88.5 5325.5,-124.5 5459.5,-124.5 5459.5,-88.5 5325.5,-88.5"/>
<text text-anchor="start" x="5333.5" y="-102.8" font-family="Times,serif" font-size="14.00">ReportMetadata</text>
</g>
<!-- oscura.reporting.auto_report.Report&#45;&gt;oscura.reporting.auto_report.ReportMetadata -->
<g id="edge5" class="edge">
<title>oscura.reporting.auto_report.Report&#45;&gt;oscura.reporting.auto_report.ReportMetadata</title>
<path fill="none" stroke="black" d="M5392.5,-36.9C5392.5,-48.75 5392.5,-64.68 5392.5,-78.21"/>
<polygon fill="black" stroke="black" points="5392.5,-88.42 5388,-78.42 5392.5,-83.42 5392.5,-78.42 5392.5,-78.42 5392.5,-78.42 5392.5,-83.42 5397,-78.42 5392.5,-88.42 5392.5,-88.42"/>
<text text-anchor="middle" x="5426.5" y="-58.8" font-family="Times,serif" font-size="14.00" fill="green">metadata</text>
</g>
<!-- oscura.reporting.core.Report -->
<g id="node48" class="node">
<title>oscura.reporting.core.Report</title>
<polygon fill="#77aadd" stroke="#77aadd" points="5501,-0.5 5501,-36.5 5566,-36.5 5566,-0.5 5501,-0.5"/>
<text text-anchor="start" x="5509" y="-14.8" font-family="Times,serif" font-size="14.00">Report</text>
</g>
<!-- oscura.reporting.core.ReportConfig -->
<g id="node50" class="node">
<title>oscura.reporting.core.ReportConfig</title>
<polygon fill="#77aadd" stroke="#77aadd" points="5478,-88.5 5478,-124.5 5589,-124.5 5589,-88.5 5478,-88.5"/>
<text text-anchor="start" x="5486" y="-102.8" font-family="Times,serif" font-size="14.00">ReportConfig</text>
</g>
<!-- oscura.reporting.core.Report&#45;&gt;oscura.reporting.core.ReportConfig -->
<g id="edge12" class="edge">
<title>oscura.reporting.core.Report&#45;&gt;oscura.reporting.core.ReportConfig</title>
<path fill="none" stroke="black" d="M5533.5,-36.9C5533.5,-48.75 5533.5,-64.68 5533.5,-78.21"/>
<polygon fill="black" stroke="black" points="5533.5,-88.42 5529,-78.42 5533.5,-83.42 5533.5,-78.42 5533.5,-78.42 5533.5,-78.42 5533.5,-83.42 5538,-78.42 5533.5,-88.42 5533.5,-88.42"/>
<text text-anchor="middle" x="5555" y="-58.8" font-family="Times,serif" font-size="14.00" fill="green">config</text>
</g>
<!-- oscura.reporting.advanced.ReportArchive -->
<g id="node49" class="node">
<title>oscura.reporting.advanced.ReportArchive</title>
<polygon fill="#77aadd" stroke="#77aadd" points="5584,-0.5 5584,-36.5 5703,-36.5 5703,-0.5 5584,-0.5"/>
<text text-anchor="start" x="5592" y="-14.8" font-family="Times,serif" font-size="14.00">ReportArchive</text>
</g>
<!-- oscura.reporting.advanced.ReportDistributor -->
<g id="node51" class="node">
<title>oscura.reporting.advanced.ReportDistributor</title>
<polygon fill="#77aadd" stroke="#77aadd" points="5721,-0.5 5721,-36.5 5866,-36.5 5866,-0.5 5721,-0.5"/>
<text text-anchor="start" x="5729" y="-14.8" font-family="Times,serif" font-size="14.00">ReportDistributor</text>
</g>
<!-- oscura.reporting.advanced.ReportEncryption -->
<g id="node52" class="node">
<title>oscura.reporting.advanced.ReportEncryption</title>
<polygon fill="#77aadd" stroke="#77aadd" points="5884.5,-0.5 5884.5,-36.5 6028.5,-36.5 6028.5,-0.5 5884.5,-0.5"/>
<text text-anchor="start" x="5892.5" y="-14.8" font-family="Times,serif" font-size="14.00">ReportEncryption</text>
</g>
<!-- oscura.reporting.advanced.ReportLocalizer -->
<g id="node53" class="node">
<title>oscura.reporting.advanced.ReportLocalizer</title>
<polygon fill="#77aadd" stroke="#77aadd" points="6046.5,-0.5 6046.5,-36.5 6176.5,-36.5 6176.5,-0.5 6046.5,-0.5"/>
<text text-anchor="start" x="6054.5" y="-14.8" font-family="Times,serif" font-size="14.00">ReportLocalizer</text>
</g>
<!-- oscura.reporting.advanced.ReportSchedule -->
<g id="node55" class="node">
<title>oscura.reporting.advanced.ReportSchedule</title>
<polygon fill="#77aadd" stroke="#77aadd" points="6195,-0.5 6195,-36.5 6326,-36.5 6326,-0.5 6195,-0.5"/>
<text text-anchor="start" x="6203" y="-14.8" font-family="Times,serif" font-size="14.00">ReportSchedule</text>
</g>
<!-- oscura.reporting.advanced.ScheduleFrequency -->
<g id="node61" class="node">
<title>oscura.reporting.advanced.ScheduleFrequency</title>
<polygon fill="#77aadd" stroke="#77aadd" points="6181.5,-88.5 6181.5,-124.5 6339.5,-124.5 6339.5,-88.5 6181.5,-88.5"/>
<text text-anchor="start" x="6189.5" y="-102.8" font-family="Times,serif" font-size="14.00">ScheduleFrequency</text>
</g>
<!-- oscura.reporting.advanced.ReportSchedule&#45;&gt;oscura.reporting.advanced.ScheduleFrequency -->
<g id="edge4" class="edge">
<title>oscura.reporting.advanced.ReportSchedule&#45;&gt;oscura.reporting.advanced.ScheduleFrequency</title>
<path fill="none" stroke="black" d="M6260.5,-36.9C6260.5,-48.75 6260.5,-64.68 6260.5,-78.21"/>
<polygon fill="black" stroke="black" points="6260.5,-88.42 6256,-78.42 6260.5,-83.42 6260.5,-78.42 6260.5,-78.42 6260.5,-78.42 6260.5,-83.42 6265,-78.42 6260.5,-88.42 6260.5,-88.42"/>
<text text-anchor="middle" x="6296.5" y="-58.8" font-family="Times,serif" font-size="14.00" fill="green">frequency</text>
</g>
<!-- oscura.reporting.advanced.ReportScheduler -->
<g id="node56" class="node">
<title>oscura.reporting.advanced.ReportScheduler</title>
<polygon fill="#77aadd" stroke="#77aadd" points="6344,-0.5 6344,-36.5 6481,-36.5 6481,-0.5 6344,-0.5"/>
<text text-anchor="start" x="6352" y="-14.8" font-family="Times,serif" font-size="14.00">ReportScheduler</text>
</g>
<!-- oscura.reporting.advanced.ReportSearchIndex -->
<g id="node57" class="node">
<title>oscura.reporting.advanced.ReportSearchIndex</title>
<polygon fill="#77aadd" stroke="#77aadd" points="6499,-0.5 6499,-36.5 6654,-36.5 6654,-0.5 6499,-0.5"/>
<text text-anchor="start" x="6507" y="-14.8" font-family="Times,serif" font-size="14.00">ReportSearchIndex</text>
</g>
<!-- oscura.reporting.template_system.ReportTemplate -->
<g id="node58" class="node">
<title>oscura.reporting.template_system.ReportTemplate</title>
<polygon fill="#77aadd" stroke="#77aadd" points="6672,-0.5 6672,-36.5 6803,-36.5 6803,-0.5 6672,-0.5"/>
<text text-anchor="start" x="6680" y="-14.8" font-family="Times,serif" font-size="14.00">ReportTemplate</text>
</g>
<!-- oscura.reporting.advanced.ReportVersion -->
<g id="node59" class="node">
<title>oscura.reporting.advanced.ReportVersion</title>
<polygon fill="#77aadd" stroke="#77aadd" points="6821,-0.5 6821,-36.5 6940,-36.5 6940,-0.5 6821,-0.5"/>
<text text-anchor="start" x="6829" y="-14.8" font-family="Times,serif" font-size="14.00">ReportVersion</text>
</g>
<!-- oscura.reporting.advanced.ReportVersionControl -->
<g id="node60" class="node">
<title>oscura.reporting.advanced.ReportVersionControl</title>
<polygon fill="#77aadd" stroke="#77aadd" points="6958.5,-0.5 6958.5,-36.5 7130.5,-36.5 7130.5,-0.5 6958.5,-0.5"/>
<text text-anchor="start" x="6966.5" y="-14.8" font-family="Times,serif" font-size="14.00">ReportVersionControl</text>
</g>
<!-- oscura.reporting.advanced.SearchResult -->
<g id="node62" class="node">
<title>oscura.reporting.advanced.SearchResult</title>
<polygon fill="#77aadd" stroke="#77aadd" points="7148.5,-0.5 7148.5,-36.5 7260.5,-36.5 7260.5,-0.5 7148.5,-0.5"/>
<text text-anchor="start" x="7156.5" y="-14.8" font-family="Times,serif" font-size="14.00">SearchResult</text>
</g>
<!-- oscura.reporting.core.Section -->
<g id="node63" class="node">
<title>oscura.reporting.core.Section</title>
<polygon fill="#77aadd" stroke="#77aadd" points="7278.5,-0.5 7278.5,-36.5 7348.5,-36.5 7348.5,-0.5 7278.5,-0.5"/>
<text text-anchor="start" x="7286.5" y="-14.8" font-family="Times,serif" font-size="14.00">Section</text>
</g>
<!-- oscura.reporting.standards.Severity -->
<g id="node64" class="node">
<title>oscura.reporting.standards.Severity</title>
<polygon fill="#77aadd" stroke="#77aadd" points="7367,-0.5 7367,-36.5 7444,-36.5 7444,-0.5 7367,-0.5"/>
<text text-anchor="start" x="7375" y="-14.8" font-family="Times,serif" font-size="14.00">Severity</text>
</g>
<!-- oscura.reporting.summary_generator.Summary -->
<g id="node66" class="node">
<title>oscura.reporting.summary_generator.Summary</title>
<polygon fill="#77aadd" stroke="#77aadd" points="7462.5,-0.5 7462.5,-36.5 7548.5,-36.5 7548.5,-0.5 7462.5,-0.5"/>
<text text-anchor="start" x="7470.5" y="-14.8" font-family="Times,serif" font-size="14.00">Summary</text>
</g>
<!-- oscura.reporting.templates.definition.TemplateDefinition -->
<g id="node67" class="node">
<title>oscura.reporting.templates.definition.TemplateDefinition</title>
<polygon fill="#77aadd" stroke="#77aadd" points="7566.5,-0.5 7566.5,-36.5 7718.5,-36.5 7718.5,-0.5 7566.5,-0.5"/>
<text text-anchor="start" x="7574.5" y="-14.8" font-family="Times,serif" font-size="14.00">TemplateDefinition</text>
</g>
<!-- oscura.reporting.index.TemplateEngine -->
<g id="node68" class="node">
<title>oscura.reporting.index.TemplateEngine</title>
<polygon fill="#77aadd" stroke="#77aadd" points="7737,-0.5 7737,-36.5 7870,-36.5 7870,-0.5 7737,-0.5"/>
<text text-anchor="start" x="7745" y="-14.8" font-family="Times,serif" font-size="14.00">TemplateEngine</text>
</g>
<!-- oscura.reporting.advanced.TemplateField -->
<g id="node69" class="node">
<title>oscura.reporting.advanced.TemplateField</title>
<polygon fill="#77aadd" stroke="#77aadd" points="7888,-0.5 7888,-36.5 8007,-36.5 8007,-0.5 7888,-0.5"/>
<text text-anchor="start" x="7896" y="-14.8" font-family="Times,serif" font-size="14.00">TemplateField</text>
</g>
<!-- oscura.reporting.template_system.TemplateSection -->
<g id="node70" class="node">
<title>oscura.reporting.template_system.TemplateSection</title>
<polygon fill="#77aadd" stroke="#77aadd" points="8025.5,-0.5 8025.5,-36.5 8161.5,-36.5 8161.5,-0.5 8025.5,-0.5"/>
<text text-anchor="start" x="8033.5" y="-14.8" font-family="Times,serif" font-size="14.00">TemplateSection</text>
</g>
<!-- oscura.reporting.templates.definition.TemplateSection -->
<g id="node71" class="node">
<title>oscura.reporting.templates.definition.TemplateSection</title>
<polygon fill="#77aadd" stroke="#77aadd" points="8179.5,-0.5 8179.5,-36.5 8315.5,-36.5 8315.5,-0.5 8179.5,-0.5"/>
<text text-anchor="start" x="8187.5" y="-14.8" font-family="Times,serif" font-size="14.00">TemplateSection</text>
</g>
<!-- oscura.reporting.analyze.UnsupportedFormatError -->
<g id="node72" class="node">
<title>oscura.reporting.analyze.UnsupportedFormatError</title>
<polygon fill="#77aadd" stroke="#77aadd" points="8334,-0.5 8334,-36.5 8535,-36.5 8535,-0.5 8334,-0.5"/>
<text text-anchor="start" x="8342" y="-14.8" font-family="Times,serif" font-size="14.00" fill="red">UnsupportedFormatError</text>
</g>
<!-- oscura.reporting.content.verbosity.VerbosityController -->
<g id="node73" class="node">
<title>oscura.reporting.content.verbosity.VerbosityController</title>
<polygon fill="#77aadd" stroke="#77aadd" points="8553,-0.5 8553,-36.5 8710,-36.5 8710,-0.5 8553,-0.5"/>
<text text-anchor="start" x="8561" y="-14.8" font-family="Times,serif" font-size="14.00">VerbosityController</text>
</g>
<!-- oscura.reporting.content.verbosity.VerbosityLevel -->
<g id="node74" class="node">
<title>oscura.reporting.content.verbosity.VerbosityLevel</title>
<polygon fill="#77aadd" stroke="#77aadd" points="8570.5,-88.5 8570.5,-124.5 8692.5,-124.5 8692.5,-88.5 8570.5,-88.5"/>
<text text-anchor="start" x="8578.5" y="-102.8" font-family="Times,serif" font-size="14.00">VerbosityLevel</text>
</g>
<!-- oscura.reporting.content.verbosity.VerbosityController&#45;&gt;oscura.reporting.content.verbosity.VerbosityLevel -->
<g id="edge11" class="edge">
<title>oscura.reporting.content.verbosity.VerbosityController&#45;&gt;oscura.reporting.content.verbosity.VerbosityLevel</title>
<path fill="none" stroke="black" d="M8631.5,-36.9C8631.5,-48.75 8631.5,-64.68 8631.5,-78.21"/>
<polygon fill="black" stroke="black" points="8631.5,-88.42 8627,-78.42 8631.5,-83.42 8631.5,-78.42 8631.5,-78.42 8631.5,-78.42 8631.5,-83.42 8636,-78.42 8631.5,-88.42 8631.5,-88.42"/>
<text text-anchor="middle" x="8648.5" y="-58.8" font-family="Times,serif" font-size="14.00" fill="green">level</text>
</g>
<!-- oscura.reporting.standards.VisualEmphasis -->
<g id="node75" class="node">
<title>oscura.reporting.standards.VisualEmphasis</title>
<polygon fill="#77aadd" stroke="#77aadd" points="8728.5,-0.5 8728.5,-36.5 8858.5,-36.5 8858.5,-0.5 8728.5,-0.5"/>
<text text-anchor="start" x="8736.5" y="-14.8" font-family="Times,serif" font-size="14.00">VisualEmphasis</text>
</g>
<!-- oscura.reporting.formatting.emphasis.VisualEmphasis -->
<g id="node76" class="node">
<title>oscura.reporting.formatting.emphasis.VisualEmphasis</title>
<polygon fill="#77aadd" stroke="#77aadd" points="8876.5,-0.5 8876.5,-36.5 9006.5,-36.5 9006.5,-0.5 8876.5,-0.5"/>
<text text-anchor="start" x="8884.5" y="-14.8" font-family="Times,serif" font-size="14.00">VisualEmphasis</text>
</g>
<!-- oscura.reporting.advanced.Watermark -->
<g id="node77" class="node">
<title>oscura.reporting.advanced.Watermark</title>
<polygon fill="#77aadd" stroke="#77aadd" points="9024.5,-0.5 9024.5,-36.5 9120.5,-36.5 9120.5,-0.5 9024.5,-0.5"/>
<text text-anchor="start" x="9032.5" y="-14.8" font-family="Times,serif" font-size="14.00">Watermark</text>
</g>
</g>
</svg>
