<?xml version="1.0" encoding="UTF-8" standalone="no"?>
<!DOCTYPE svg PUBLIC "-//W3C//DTD SVG 1.1//EN"
 "http://www.w3.org/Graphics/SVG/1.1/DTD/svg11.dtd">
<!-- Generated by graphviz version 2.43.0 (0)
 -->
<!-- Title: classes_loaders Pages: 1 -->
<svg width="2607pt" height="133pt"
 viewBox="0.00 0.00 2606.50 133.00" xmlns="http://www.w3.org/2000/svg" xmlns:xlink="http://www.w3.org/1999/xlink">
<g id="graph0" class="graph" transform="scale(1 1) rotate(0) translate(4 129)">
<title>classes_loaders</title>
<polygon fill="white" stroke="transparent" points="-4,4 -4,-129 2602.5,-129 2602.5,4 -4,4"/>
<!-- oscura.loaders.configurable.BitfieldDef -->
<g id="node1" class="node">
<title>oscura.loaders.configurable.BitfieldDef</title>
<polygon fill="#77aadd" stroke="#77aadd" points="0,-0.5 0,-36.5 93,-36.5 93,-0.5 0,-0.5"/>
<text text-anchor="start" x="8" y="-14.8" font-family="Times,serif" font-size="14.00">BitfieldDef</text>
</g>
<!-- oscura.loaders.configurable.BitfieldExtractor -->
<g id="node2" class="node">
<title>oscura.loaders.configurable.BitfieldExtractor</title>
<polygon fill="#77aadd" stroke="#77aadd" points="111,-0.5 111,-36.5 248,-36.5 248,-0.5 111,-0.5"/>
<text text-anchor="start" x="119" y="-14.8" font-family="Times,serif" font-size="14.00">BitfieldExtractor</text>
</g>
<!-- oscura.loaders.configurable.ConfigurablePacketLoader -->
<g id="node3" class="node">
<title>oscura.loaders.configurable.ConfigurablePacketLoader</title>
<polygon fill="#77aadd" stroke="#77aadd" points="196,-88.5 196,-124.5 401,-124.5 401,-88.5 196,-88.5"/>
<text text-anchor="start" x="204" y="-102.8" font-family="Times,serif" font-size="14.00">ConfigurablePacketLoader</text>
</g>
<!-- oscura.loaders.configurable.BitfieldExtractor&#45;&gt;oscura.loaders.configurable.ConfigurablePacketLoader -->
<g id="edge1" class="edge">
<title>oscura.loaders.configurable.BitfieldExtractor&#45;&gt;oscura.loaders.configurable.ConfigurablePacketLoader</title>
<path fill="none" stroke="black" d="M179.91,-36.93C181.06,-47.7 184.23,-61.12 192.5,-70 196.85,-74.67 201.84,-78.73 207.22,-82.26"/>
<polygon fill="black" stroke="black" points="207.57,-82.46 214.77,-81.95 218,-88.4 210.81,-88.9 207.57,-82.46"/>
<text text-anchor="middle" x="254.5" y="-58.8" font-family="Times,serif" font-size="14.00" fill="green">bitfield_extractor</text>
</g>
<!-- oscura.loaders.configurable.DeviceConfig -->
<g id="node4" class="node">
<title>oscura.loaders.configurable.DeviceConfig</title>
<polygon fill="#77aadd" stroke="#77aadd" points="493.5,-0.5 493.5,-36.5 603.5,-36.5 603.5,-0.5 493.5,-0.5"/>
<text text-anchor="start" x="501.5" y="-14.8" font-family="Times,serif" font-size="14.00">DeviceConfig</text>
</g>
<!-- oscura.loaders.configurable.DeviceMapper -->
<g id="node6" class="node">
<title>oscura.loaders.configurable.DeviceMapper</title>
<polygon fill="#77aadd" stroke="#77aadd" points="488.5,-88.5 488.5,-124.5 608.5,-124.5 608.5,-88.5 488.5,-88.5"/>
<text text-anchor="start" x="496.5" y="-102.8" font-family="Times,serif" font-size="14.00">DeviceMapper</text>
</g>
<!-- oscura.loaders.configurable.DeviceConfig&#45;&gt;oscura.loaders.configurable.DeviceMapper -->
<g id="edge3" class="edge">
<title>oscura.loaders.configurable.DeviceConfig&#45;&gt;oscura.loaders.configurable.DeviceMapper</title>
<path fill="none" stroke="black" d="M548.5,-36.9C548.5,-48.17 548.5,-63.12 548.5,-76.18"/>
<polygon fill="none" stroke="black" points="548.5,-76.42 552.5,-82.42 548.5,-88.42 544.5,-82.42 548.5,-76.42"/>
<text text-anchor="middle" x="570" y="-58.8" font-family="Times,serif" font-size="14.00" fill="green">config</text>
</g>
<!-- oscura.loaders.configurable.DeviceInfo -->
<g id="node5" class="node">
<title>oscura.loaders.configurable.DeviceInfo</title>
<polygon fill="#77aadd" stroke="#77aadd" points="621.5,-0.5 621.5,-36.5 713.5,-36.5 713.5,-0.5 621.5,-0.5"/>
<text text-anchor="start" x="629.5" y="-14.8" font-family="Times,serif" font-size="14.00">DeviceInfo</text>
</g>
<!-- oscura.loaders.configurable.HeaderFieldDef -->
<g id="node7" class="node">
<title>oscura.loaders.configurable.HeaderFieldDef</title>
<polygon fill="#77aadd" stroke="#77aadd" points="731.5,-0.5 731.5,-36.5 861.5,-36.5 861.5,-0.5 731.5,-0.5"/>
<text text-anchor="start" x="739.5" y="-14.8" font-family="Times,serif" font-size="14.00">HeaderFieldDef</text>
</g>
<!-- oscura.loaders.preprocessing.IdleRegion -->
<g id="node8" class="node">
<title>oscura.loaders.preprocessing.IdleRegion</title>
<polygon fill="#77aadd" stroke="#77aadd" points="880,-0.5 880,-36.5 973,-36.5 973,-0.5 880,-0.5"/>
<text text-anchor="start" x="888" y="-14.8" font-family="Times,serif" font-size="14.00">IdleRegion</text>
</g>
<!-- oscura.loaders.preprocessing.IdleStatistics -->
<g id="node9" class="node">
<title>oscura.loaders.preprocessing.IdleStatistics</title>
<polygon fill="#77aadd" stroke="#77aadd" points="991,-0.5 991,-36.5 1102,-36.5 1102,-0.5 991,-0.5"/>
<text text-anchor="start" x="999" y="-14.8" font-family="Times,serif" font-size="14.00">IdleStatistics</text>
</g>
<!-- oscura.loaders.lazy.LazyWaveformTrace -->
<g id="node10" class="node">
<title>oscura.loaders.lazy.LazyWaveformTrace</title>
<polygon fill="#77aadd" stroke="#77aadd" points="1120,-0.5 1120,-36.5 1281,-36.5 1281,-0.5 1120,-0.5"/>
<text text-anchor="start" x="1128" y="-14.8" font-family="Times,serif" font-size="14.00">LazyWaveformTrace</text>
</g>
<!-- oscura.loaders.configurable.PacketFormatConfig -->
<g id="node11" class="node">
<title>oscura.loaders.configurable.PacketFormatConfig</title>
<polygon fill="#77aadd" stroke="#77aadd" points="266,-0.5 266,-36.5 427,-36.5 427,-0.5 266,-0.5"/>
<text text-anchor="start" x="274" y="-14.8" font-family="Times,serif" font-size="14.00">PacketFormatConfig</text>
</g>
<!-- oscura.loaders.configurable.PacketFormatConfig&#45;&gt;oscura.loaders.configurable.ConfigurablePacketLoader -->
<g id="edge4" class="edge">
<title>oscura.loaders.configurable.PacketFormatConfig&#45;&gt;oscura.loaders.configurable.ConfigurablePacketLoader</title>
<path fill="none" stroke="black" d="M336.79,-36.9C330.24,-48.64 321.46,-64.37 313.96,-77.81"/>
<polygon fill="none" stroke="black" points="313.88,-77.94 314.45,-85.13 308.04,-88.42 307.47,-81.23 313.88,-77.94"/>
<text text-anchor="middle" x="374.5" y="-58.8" font-family="Times,serif" font-size="14.00" fill="green">format_config</text>
</g>
<!-- oscura.loaders.configurable.PacketLoadResult -->
<g id="node12" class="node">
<title>oscura.loaders.configurable.PacketLoadResult</title>
<polygon fill="#77aadd" stroke="#77aadd" points="1299.5,-0.5 1299.5,-36.5 1443.5,-36.5 1443.5,-0.5 1299.5,-0.5"/>
<text text-anchor="start" x="1307.5" y="-14.8" font-family="Times,serif" font-size="14.00">PacketLoadResult</text>
</g>
<!-- oscura.loaders.validation.PacketValidator -->
<g id="node13" class="node">
<title>oscura.loaders.validation.PacketValidator</title>
<polygon fill="#77aadd" stroke="#77aadd" points="1460.5,-88.5 1460.5,-124.5 1588.5,-124.5 1588.5,-88.5 1460.5,-88.5"/>
<text text-anchor="start" x="1468.5" y="-102.8" font-family="Times,serif" font-size="14.00">PacketValidator</text>
</g>
<!-- oscura.loaders.pcap.PcapPacketList -->
<g id="node14" class="node">
<title>oscura.loaders.pcap.PcapPacketList</title>
<polygon fill="#77aadd" stroke="#77aadd" points="1605,-0.5 1605,-36.5 1730,-36.5 1730,-0.5 1605,-0.5"/>
<text text-anchor="start" x="1613" y="-14.8" font-family="Times,serif" font-size="14.00">PcapPacketList</text>
</g>
<!-- oscura.loaders.configurable.SampleFormatDef -->
<g id="node15" class="node">
<title>oscura.loaders.configurable.SampleFormatDef</title>
<polygon fill="#77aadd" stroke="#77aadd" points="1748.5,-0.5 1748.5,-36.5 1894.5,-36.5 1894.5,-0.5 1748.5,-0.5"/>
<text text-anchor="start" x="1756.5" y="-14.8" font-family="Times,serif" font-size="14.00">SampleFormatDef</text>
</g>
<!-- oscura.loaders.validation.SequenceGap -->
<g id="node16" class="node">
<title>oscura.loaders.validation.SequenceGap</title>
<polygon fill="#77aadd" stroke="#77aadd" points="1912.5,-0.5 1912.5,-36.5 2026.5,-36.5 2026.5,-0.5 1912.5,-0.5"/>
<text text-anchor="start" x="1920.5" y="-14.8" font-family="Times,serif" font-size="14.00">SequenceGap</text>
</g>
<!-- oscura.loaders.validation.SequenceValidation -->
<g id="node17" class="node">
<title>oscura.loaders.validation.SequenceValidation</title>
<polygon fill="#77aadd" stroke="#77aadd" points="2045,-0.5 2045,-36.5 2202,-36.5 2202,-0.5 2045,-0.5"/>
<text text-anchor="start" x="2053" y="-14.8" font-family="Times,serif" font-size="14.00">SequenceValidation</text>
</g>
<!-- oscura.loaders.vcd.VCDHeader -->
<g id="node18" class="node">
<title>oscura.loaders.vcd.VCDHeader</title>
<polygon fill="#77aadd" stroke="#77aadd" points="2220,-0.5 2220,-36.5 2321,-36.5 2321,-0.5 2220,-0.5"/>
<text text-anchor="start" x="2228" y="-14.8" font-family="Times,serif" font-size="14.00">VCDHeader</text>
</g>
<!-- oscura.loaders.vcd.VCDVariable -->
<g id="node19" class="node">
<title>oscura.loaders.vcd.VCDVariable</title>
<polygon fill="#77aadd" stroke="#77aadd" points="2339,-0.5 2339,-36.5 2446,-36.5 2446,-0.5 2339,-0.5"/>
<text text-anchor="start" x="2347" y="-14.8" font-family="Times,serif" font-size="14.00">VCDVariable</text>
</g>
<!-- oscura.loaders.validation.ValidationResult -->
<g id="node20" class="node">
<title>oscura.loaders.validation.ValidationResult</title>
<polygon fill="#77aadd" stroke="#77aadd" points="2464.5,-0.5 2464.5,-36.5 2598.5,-36.5 2598.5,-0.5 2464.5,-0.5"/>
<text text-anchor="start" x="2472.5" y="-14.8" font-family="Times,serif" font-size="14.00">ValidationResult</text>
</g>
<!-- oscura.loaders.validation.ValidationStats -->
<g id="node21" class="node">
<title>oscura.loaders.validation.ValidationStats</title>
<polygon fill="#77aadd" stroke="#77aadd" points="1462,-0.5 1462,-36.5 1587,-36.5 1587,-0.5 1462,-0.5"/>
<text text-anchor="start" x="1470" y="-14.8" font-family="Times,serif" font-size="14.00">ValidationStats</text>
</g>
<!-- oscura.loaders.validation.ValidationStats&#45;&gt;oscura.loaders.validation.PacketValidator -->
<g id="edge2" class="edge">
<title>oscura.loaders.validation.ValidationStats&#45;&gt;oscura.loaders.validation.PacketValidator</title>
<path fill="none" stroke="black" d="M1524.5,-36.9C1524.5,-48.17 1524.5,-63.12 1524.5,-76.18"/>
<polygon fill="black" stroke="black" points="1524.5,-76.42 1528.5,-82.42 1524.5,-88.42 1520.5,-82.42 1524.5,-76.42"/>
<text text-anchor="middle" x="1542.5" y="-58.8" font-family="Times,serif" font-size="14.00" fill="green">stats</text>
</g>
</g>
</svg>
