<?xml version="1.0" encoding="UTF-8" standalone="no"?>
<!DOCTYPE svg PUBLIC "-//W3C//DTD SVG 1.1//EN"
 "http://www.w3.org/Graphics/SVG/1.1/DTD/svg11.dtd">
<!-- Generated by graphviz version 2.43.0 (0)
 -->
<!-- Title: classes_inference Pages: 1 -->
<svg width="6224pt" height="133pt"
 viewBox="0.00 0.00 6223.50 133.00" xmlns="http://www.w3.org/2000/svg" xmlns:xlink="http://www.w3.org/1999/xlink">
<g id="graph0" class="graph" transform="scale(1 1) rotate(0) translate(4 129)">
<title>classes_inference</title>
<polygon fill="white" stroke="transparent" points="-4,4 -4,-129 6219.5,-129 6219.5,4 -4,4"/>
<!-- oscura.inference.adaptive_tuning.AdaptiveParameterTuner -->
<g id="node1" class="node">
<title>oscura.inference.adaptive_tuning.AdaptiveParameterTuner</title>
<polygon fill="#77aadd" stroke="#77aadd" points="0,-0.5 0,-36.5 197,-36.5 197,-0.5 0,-0.5"/>
<text text-anchor="start" x="8" y="-14.8" font-family="Times,serif" font-size="14.00">AdaptiveParameterTuner</text>
</g>
<!-- oscura.inference.binary.AlignmentDetector -->
<g id="node2" class="node">
<title>oscura.inference.binary.AlignmentDetector</title>
<polygon fill="#77aadd" stroke="#77aadd" points="215.5,-0.5 215.5,-36.5 367.5,-36.5 367.5,-0.5 215.5,-0.5"/>
<text text-anchor="start" x="223.5" y="-14.8" font-family="Times,serif" font-size="14.00">AlignmentDetector</text>
</g>
<!-- oscura.inference.binary.AlignmentResult -->
<g id="node3" class="node">
<title>oscura.inference.binary.AlignmentResult</title>
<polygon fill="#77aadd" stroke="#77aadd" points="385.5,-0.5 385.5,-36.5 521.5,-36.5 521.5,-0.5 385.5,-0.5"/>
<text text-anchor="start" x="393.5" y="-14.8" font-family="Times,serif" font-size="14.00">AlignmentResult</text>
</g>
<!-- oscura.inference.alignment.AlignmentResult -->
<g id="node4" class="node">
<title>oscura.inference.alignment.AlignmentResult</title>
<polygon fill="#77aadd" stroke="#77aadd" points="539.5,-0.5 539.5,-36.5 675.5,-36.5 675.5,-0.5 539.5,-0.5"/>
<text text-anchor="start" x="547.5" y="-14.8" font-family="Times,serif" font-size="14.00">AlignmentResult</text>
</g>
<!-- oscura.inference.signal_intelligence.AnalysisRecommendation -->
<g id="node5" class="node">
<title>oscura.inference.signal_intelligence.AnalysisRecommendation</title>
<polygon fill="#77aadd" stroke="#77aadd" points="693.5,-0.5 693.5,-36.5 893.5,-36.5 893.5,-0.5 693.5,-0.5"/>
<text text-anchor="start" x="701.5" y="-14.8" font-family="Times,serif" font-size="14.00">AnalysisRecommendation</text>
</g>
<!-- oscura.inference.bayesian.BayesianInference -->
<g id="node6" class="node">
<title>oscura.inference.bayesian.BayesianInference</title>
<polygon fill="#77aadd" stroke="#77aadd" points="912,-0.5 912,-36.5 1061,-36.5 1061,-0.5 912,-0.5"/>
<text text-anchor="start" x="920" y="-14.8" font-family="Times,serif" font-size="14.00">BayesianInference</text>
</g>
<!-- oscura.inference.binary.BinaryParserGenerator -->
<g id="node7" class="node">
<title>oscura.inference.binary.BinaryParserGenerator</title>
<polygon fill="#77aadd" stroke="#77aadd" points="1079,-0.5 1079,-36.5 1262,-36.5 1262,-0.5 1079,-0.5"/>
<text text-anchor="start" x="1087" y="-14.8" font-family="Times,serif" font-size="14.00">BinaryParserGenerator</text>
</g>
<!-- oscura.inference.sequences.CommunicationFlow -->
<g id="node8" class="node">
<title>oscura.inference.sequences.CommunicationFlow</title>
<polygon fill="#77aadd" stroke="#77aadd" points="1280,-0.5 1280,-36.5 1443,-36.5 1443,-0.5 1280,-0.5"/>
<text text-anchor="start" x="1288" y="-14.8" font-family="Times,serif" font-size="14.00">CommunicationFlow</text>
</g>
<!-- oscura.inference.protocol_dsl.DecodedMessage -->
<g id="node9" class="node">
<title>oscura.inference.protocol_dsl.DecodedMessage</title>
<polygon fill="#77aadd" stroke="#77aadd" points="1461,-0.5 1461,-36.5 1602,-36.5 1602,-0.5 1461,-0.5"/>
<text text-anchor="start" x="1469" y="-14.8" font-family="Times,serif" font-size="14.00">DecodedMessage</text>
</g>
<!-- oscura.inference.protocol_dsl.FieldDefinition -->
<g id="node10" class="node">
<title>oscura.inference.protocol_dsl.FieldDefinition</title>
<polygon fill="#77aadd" stroke="#77aadd" points="1620.5,-0.5 1620.5,-36.5 1742.5,-36.5 1742.5,-0.5 1620.5,-0.5"/>
<text text-anchor="start" x="1628.5" y="-14.8" font-family="Times,serif" font-size="14.00">FieldDefinition</text>
</g>
<!-- oscura.inference.state_machine.FiniteAutomaton -->
<g id="node11" class="node">
<title>oscura.inference.state_machine.FiniteAutomaton</title>
<polygon fill="#77aadd" stroke="#77aadd" points="1761,-0.5 1761,-36.5 1898,-36.5 1898,-0.5 1761,-0.5"/>
<text text-anchor="start" x="1769" y="-14.8" font-family="Times,serif" font-size="14.00">FiniteAutomaton</text>
</g>
<!-- oscura.inference.stream.FramingResult -->
<g id="node12" class="node">
<title>oscura.inference.stream.FramingResult</title>
<polygon fill="#77aadd" stroke="#77aadd" points="1916,-0.5 1916,-36.5 2039,-36.5 2039,-0.5 1916,-0.5"/>
<text text-anchor="start" x="1924" y="-14.8" font-family="Times,serif" font-size="14.00">FramingResult</text>
</g>
<!-- oscura.inference.message_format.InferredField -->
<g id="node13" class="node">
<title>oscura.inference.message_format.InferredField</title>
<polygon fill="#77aadd" stroke="#77aadd" points="2057,-0.5 2057,-36.5 2168,-36.5 2168,-0.5 2057,-0.5"/>
<text text-anchor="start" x="2065" y="-14.8" font-family="Times,serif" font-size="14.00">InferredField</text>
</g>
<!-- oscura.inference.binary.MagicByteDetector -->
<g id="node14" class="node">
<title>oscura.inference.binary.MagicByteDetector</title>
<polygon fill="#77aadd" stroke="#77aadd" points="2186,-0.5 2186,-36.5 2341,-36.5 2341,-0.5 2186,-0.5"/>
<text text-anchor="start" x="2194" y="-14.8" font-family="Times,serif" font-size="14.00">MagicByteDetector</text>
</g>
<!-- oscura.inference.binary.MagicByteResult -->
<g id="node15" class="node">
<title>oscura.inference.binary.MagicByteResult</title>
<polygon fill="#77aadd" stroke="#77aadd" points="2359,-0.5 2359,-36.5 2498,-36.5 2498,-0.5 2359,-0.5"/>
<text text-anchor="start" x="2367" y="-14.8" font-family="Times,serif" font-size="14.00">MagicByteResult</text>
</g>
<!-- oscura.inference.message_format.MessageFormatInferrer -->
<g id="node16" class="node">
<title>oscura.inference.message_format.MessageFormatInferrer</title>
<polygon fill="#77aadd" stroke="#77aadd" points="2516.5,-0.5 2516.5,-36.5 2704.5,-36.5 2704.5,-0.5 2516.5,-0.5"/>
<text text-anchor="start" x="2524.5" y="-14.8" font-family="Times,serif" font-size="14.00">MessageFormatInferrer</text>
</g>
<!-- oscura.inference.stream.MessageFrame -->
<g id="node17" class="node">
<title>oscura.inference.stream.MessageFrame</title>
<polygon fill="#77aadd" stroke="#77aadd" points="2722.5,-0.5 2722.5,-36.5 2848.5,-36.5 2848.5,-0.5 2722.5,-0.5"/>
<text text-anchor="start" x="2730.5" y="-14.8" font-family="Times,serif" font-size="14.00">MessageFrame</text>
</g>
<!-- oscura.inference.stream.MessageFramer -->
<g id="node18" class="node">
<title>oscura.inference.stream.MessageFramer</title>
<polygon fill="#77aadd" stroke="#77aadd" points="2867,-0.5 2867,-36.5 3000,-36.5 3000,-0.5 2867,-0.5"/>
<text text-anchor="start" x="2875" y="-14.8" font-family="Times,serif" font-size="14.00">MessageFramer</text>
</g>
<!-- oscura.inference.message_format.MessageSchema -->
<g id="node19" class="node">
<title>oscura.inference.message_format.MessageSchema</title>
<polygon fill="#77aadd" stroke="#77aadd" points="3018.5,-0.5 3018.5,-36.5 3154.5,-36.5 3154.5,-0.5 3018.5,-0.5"/>
<text text-anchor="start" x="3026.5" y="-14.8" font-family="Times,serif" font-size="14.00">MessageSchema</text>
</g>
<!-- oscura.inference.binary.ParserDefinition -->
<g id="node20" class="node">
<title>oscura.inference.binary.ParserDefinition</title>
<polygon fill="#77aadd" stroke="#77aadd" points="3173,-0.5 3173,-36.5 3306,-36.5 3306,-0.5 3173,-0.5"/>
<text text-anchor="start" x="3181" y="-14.8" font-family="Times,serif" font-size="14.00">ParserDefinition</text>
</g>
<!-- oscura.inference.binary.ParserField -->
<g id="node21" class="node">
<title>oscura.inference.binary.ParserField</title>
<polygon fill="#77aadd" stroke="#77aadd" points="3324,-0.5 3324,-36.5 3423,-36.5 3423,-0.5 3324,-0.5"/>
<text text-anchor="start" x="3332" y="-14.8" font-family="Times,serif" font-size="14.00">ParserField</text>
</g>
<!-- oscura.inference.bayesian.Posterior -->
<g id="node22" class="node">
<title>oscura.inference.bayesian.Posterior</title>
<polygon fill="#77aadd" stroke="#77aadd" points="3441.5,-0.5 3441.5,-36.5 3523.5,-36.5 3523.5,-0.5 3441.5,-0.5"/>
<text text-anchor="start" x="3449.5" y="-14.8" font-family="Times,serif" font-size="14.00">Posterior</text>
</g>
<!-- oscura.inference.bayesian.SequentialBayesian -->
<g id="node34" class="node">
<title>oscura.inference.bayesian.SequentialBayesian</title>
<polygon fill="#77aadd" stroke="#77aadd" points="3403.5,-88.5 3403.5,-124.5 3561.5,-124.5 3561.5,-88.5 3403.5,-88.5"/>
<text text-anchor="start" x="3411.5" y="-102.8" font-family="Times,serif" font-size="14.00">SequentialBayesian</text>
</g>
<!-- oscura.inference.bayesian.Posterior&#45;&gt;oscura.inference.bayesian.SequentialBayesian -->
<g id="edge1" class="edge">
<title>oscura.inference.bayesian.Posterior&#45;&gt;oscura.inference.bayesian.SequentialBayesian</title>
<path fill="none" stroke="black" d="M3482.5,-36.9C3482.5,-48.17 3482.5,-63.12 3482.5,-76.18"/>
<polygon fill="none" stroke="black" points="3482.5,-76.42 3486.5,-82.42 3482.5,-88.42 3478.5,-82.42 3482.5,-76.42"/>
<text text-anchor="middle" x="3545.5" y="-58.8" font-family="Times,serif" font-size="14.00" fill="green">current_posterior</text>
</g>
<!-- oscura.inference.bayesian.Prior -->
<g id="node23" class="node">
<title>oscura.inference.bayesian.Prior</title>
<polygon fill="#77aadd" stroke="#77aadd" points="3607.5,-0.5 3607.5,-36.5 3661.5,-36.5 3661.5,-0.5 3607.5,-0.5"/>
<text text-anchor="start" x="3616" y="-14.8" font-family="Times,serif" font-size="14.00">Prior</text>
</g>
<!-- oscura.inference.protocol_dsl.ProtocolDecoder -->
<g id="node24" class="node">
<title>oscura.inference.protocol_dsl.ProtocolDecoder</title>
<polygon fill="#77aadd" stroke="#77aadd" points="3599,-88.5 3599,-124.5 3734,-124.5 3734,-88.5 3599,-88.5"/>
<text text-anchor="start" x="3607" y="-102.8" font-family="Times,serif" font-size="14.00">ProtocolDecoder</text>
</g>
<!-- oscura.inference.protocol_dsl.ProtocolDefinition -->
<g id="node25" class="node">
<title>oscura.inference.protocol_dsl.ProtocolDefinition</title>
<polygon fill="#77aadd" stroke="#77aadd" points="3712.5,-0.5 3712.5,-36.5 3858.5,-36.5 3858.5,-0.5 3712.5,-0.5"/>
<text text-anchor="start" x="3720.5" y="-14.8" font-family="Times,serif" font-size="14.00">ProtocolDefinition</text>
</g>
<!-- oscura.inference.protocol_dsl.ProtocolDefinition&#45;&gt;oscura.inference.protocol_dsl.ProtocolDecoder -->
<g id="edge2" class="edge">
<title>oscura.inference.protocol_dsl.ProtocolDefinition&#45;&gt;oscura.inference.protocol_dsl.ProtocolDecoder</title>
<path fill="none" stroke="black" d="M3755.77,-36.59C3746.53,-42.19 3736.43,-48.62 3727.5,-55 3716.59,-62.79 3705.15,-71.97 3695.15,-80.36"/>
<polygon fill="none" stroke="black" points="3694.85,-80.61 3692.88,-87.55 3685.72,-88.39 3687.69,-81.46 3694.85,-80.61"/>
<text text-anchor="middle" x="3761.5" y="-58.8" font-family="Times,serif" font-size="14.00" fill="green">definition</text>
</g>
<!-- oscura.inference.protocol_dsl.ProtocolEncoder -->
<g id="node26" class="node">
<title>oscura.inference.protocol_dsl.ProtocolEncoder</title>
<polygon fill="#77aadd" stroke="#77aadd" points="3752,-88.5 3752,-124.5 3887,-124.5 3887,-88.5 3752,-88.5"/>
<text text-anchor="start" x="3760" y="-102.8" font-family="Times,serif" font-size="14.00">ProtocolEncoder</text>
</g>
<!-- oscura.inference.protocol_dsl.ProtocolDefinition&#45;&gt;oscura.inference.protocol_dsl.ProtocolEncoder -->
<g id="edge3" class="edge">
<title>oscura.inference.protocol_dsl.ProtocolDefinition&#45;&gt;oscura.inference.protocol_dsl.ProtocolEncoder</title>
<path fill="none" stroke="black" d="M3792.38,-36.9C3796.93,-48.4 3802.99,-63.74 3808.23,-77"/>
<polygon fill="none" stroke="black" points="3808.33,-77.26 3814.26,-81.37 3812.75,-88.42 3806.82,-84.31 3808.33,-77.26"/>
<text text-anchor="middle" x="3838.5" y="-58.8" font-family="Times,serif" font-size="14.00" fill="green">definition</text>
</g>
<!-- oscura.inference.protocol_library.ProtocolInfo -->
<g id="node27" class="node">
<title>oscura.inference.protocol_library.ProtocolInfo</title>
<polygon fill="#77aadd" stroke="#77aadd" points="3876.5,-0.5 3876.5,-36.5 3980.5,-36.5 3980.5,-0.5 3876.5,-0.5"/>
<text text-anchor="start" x="3884.5" y="-14.8" font-family="Times,serif" font-size="14.00">ProtocolInfo</text>
</g>
<!-- oscura.inference.protocol_library.ProtocolLibrary -->
<g id="node28" class="node">
<title>oscura.inference.protocol_library.ProtocolLibrary</title>
<polygon fill="#77aadd" stroke="#77aadd" points="3998.5,-0.5 3998.5,-36.5 4126.5,-36.5 4126.5,-0.5 3998.5,-0.5"/>
<text text-anchor="start" x="4006.5" y="-14.8" font-family="Times,serif" font-size="14.00">ProtocolLibrary</text>
</g>
<!-- oscura.inference.stream.ReassembledStream -->
<g id="node29" class="node">
<title>oscura.inference.stream.ReassembledStream</title>
<polygon fill="#77aadd" stroke="#77aadd" points="4144.5,-0.5 4144.5,-36.5 4308.5,-36.5 4308.5,-0.5 4144.5,-0.5"/>
<text text-anchor="start" x="4152.5" y="-14.8" font-family="Times,serif" font-size="14.00">ReassembledStream</text>
</g>
<!-- oscura.inference.sequences.RequestResponseCorrelator -->
<g id="node30" class="node">
<title>oscura.inference.sequences.RequestResponseCorrelator</title>
<polygon fill="#77aadd" stroke="#77aadd" points="4326.5,-0.5 4326.5,-36.5 4544.5,-36.5 4544.5,-0.5 4326.5,-0.5"/>
<text text-anchor="start" x="4334.5" y="-14.8" font-family="Times,serif" font-size="14.00">RequestResponseCorrelator</text>
</g>
<!-- oscura.inference.sequences.RequestResponsePair -->
<g id="node31" class="node">
<title>oscura.inference.sequences.RequestResponsePair</title>
<polygon fill="#77aadd" stroke="#77aadd" points="4562.5,-0.5 4562.5,-36.5 4734.5,-36.5 4734.5,-0.5 4562.5,-0.5"/>
<text text-anchor="start" x="4570.5" y="-14.8" font-family="Times,serif" font-size="14.00">RequestResponsePair</text>
</g>
<!-- oscura.inference.sequences.SequencePattern -->
<g id="node32" class="node">
<title>oscura.inference.sequences.SequencePattern</title>
<polygon fill="#77aadd" stroke="#77aadd" points="4753,-0.5 4753,-36.5 4892,-36.5 4892,-0.5 4753,-0.5"/>
<text text-anchor="start" x="4761" y="-14.8" font-family="Times,serif" font-size="14.00">SequencePattern</text>
</g>
<!-- oscura.inference.sequences.SequencePatternDetector -->
<g id="node33" class="node">
<title>oscura.inference.sequences.SequencePatternDetector</title>
<polygon fill="#77aadd" stroke="#77aadd" points="4910,-0.5 4910,-36.5 5111,-36.5 5111,-0.5 4910,-0.5"/>
<text text-anchor="start" x="4918" y="-14.8" font-family="Times,serif" font-size="14.00">SequencePatternDetector</text>
</g>
<!-- oscura.inference.state_machine.State -->
<g id="node35" class="node">
<title>oscura.inference.state_machine.State</title>
<polygon fill="#77aadd" stroke="#77aadd" points="5129,-0.5 5129,-36.5 5184,-36.5 5184,-0.5 5129,-0.5"/>
<text text-anchor="start" x="5137" y="-14.8" font-family="Times,serif" font-size="14.00">State</text>
</g>
<!-- oscura.inference.state_machine.StateMachineInferrer -->
<g id="node36" class="node">
<title>oscura.inference.state_machine.StateMachineInferrer</title>
<polygon fill="#77aadd" stroke="#77aadd" points="5202.5,-0.5 5202.5,-36.5 5374.5,-36.5 5374.5,-0.5 5202.5,-0.5"/>
<text text-anchor="start" x="5210.5" y="-14.8" font-family="Times,serif" font-size="14.00">StateMachineInferrer</text>
</g>
<!-- oscura.inference.stream.StreamSegment -->
<g id="node37" class="node">
<title>oscura.inference.stream.StreamSegment</title>
<polygon fill="#77aadd" stroke="#77aadd" points="5393,-0.5 5393,-36.5 5526,-36.5 5526,-0.5 5393,-0.5"/>
<text text-anchor="start" x="5401" y="-14.8" font-family="Times,serif" font-size="14.00">StreamSegment</text>
</g>
<!-- oscura.inference.stream.TCPStreamReassembler -->
<g id="node38" class="node">
<title>oscura.inference.stream.TCPStreamReassembler</title>
<polygon fill="#77aadd" stroke="#77aadd" points="5544,-0.5 5544,-36.5 5735,-36.5 5735,-0.5 5544,-0.5"/>
<text text-anchor="start" x="5552" y="-14.8" font-family="Times,serif" font-size="14.00">TCPStreamReassembler</text>
</g>
<!-- oscura.inference.state_machine.Transition -->
<g id="node39" class="node">
<title>oscura.inference.state_machine.Transition</title>
<polygon fill="#77aadd" stroke="#77aadd" points="5753,-0.5 5753,-36.5 5842,-36.5 5842,-0.5 5753,-0.5"/>
<text text-anchor="start" x="5761" y="-14.8" font-family="Times,serif" font-size="14.00">Transition</text>
</g>
<!-- oscura.inference.adaptive_tuning.TunedParameters -->
<g id="node40" class="node">
<title>oscura.inference.adaptive_tuning.TunedParameters</title>
<polygon fill="#77aadd" stroke="#77aadd" points="5860,-0.5 5860,-36.5 6003,-36.5 6003,-0.5 5860,-0.5"/>
<text text-anchor="start" x="5868" y="-14.8" font-family="Times,serif" font-size="14.00">TunedParameters</text>
</g>
<!-- oscura.inference.stream.UDPStreamReassembler -->
<g id="node41" class="node">
<title>oscura.inference.stream.UDPStreamReassembler</title>
<polygon fill="#77aadd" stroke="#77aadd" points="6021.5,-0.5 6021.5,-36.5 6215.5,-36.5 6215.5,-0.5 6021.5,-0.5"/>
<text text-anchor="start" x="6029.5" y="-14.8" font-family="Times,serif" font-size="14.00">UDPStreamReassembler</text>
</g>
</g>
</svg>
