<?xml version="1.0" encoding="UTF-8" standalone="no"?>
<!DOCTYPE svg PUBLIC "-//W3C//DTD SVG 1.1//EN"
 "http://www.w3.org/Graphics/SVG/1.1/DTD/svg11.dtd">
<!-- Generated by graphviz version 2.43.0 (0)
 -->
<!-- Title: packages_inference Pages: 1 -->
<svg width="3228pt" height="188pt"
 viewBox="0.00 0.00 3227.50 188.00" xmlns="http://www.w3.org/2000/svg" xmlns:xlink="http://www.w3.org/1999/xlink">
<g id="graph0" class="graph" transform="scale(1 1) rotate(0) translate(4 184)">
<title>packages_inference</title>
<polygon fill="white" stroke="transparent" points="-4,4 -4,-184 3223.5,-184 3223.5,4 -4,4"/>
<!-- oscura.inference -->
<g id="node1" class="node">
<title>oscura.inference</title>
<polygon fill="#77aadd" stroke="#77aadd" points="1685,-36 1542,-36 1542,0 1685,0 1685,-36"/>
<text text-anchor="middle" x="1613.5" y="-14.3" font-family="Times,serif" font-size="14.00">oscura.inference</text>
</g>
<!-- oscura.inference.adaptive_tuning -->
<g id="node2" class="node">
<title>oscura.inference.adaptive_tuning</title>
<polygon fill="#77aadd" stroke="#77aadd" points="263,-108 0,-108 0,-72 263,-72 263,-108"/>
<text text-anchor="middle" x="131.5" y="-86.3" font-family="Times,serif" font-size="14.00">oscura.inference.adaptive_tuning</text>
</g>
<!-- oscura.inference&#45;&gt;oscura.inference.adaptive_tuning -->
<g id="edge1" class="edge">
<title>oscura.inference&#45;&gt;oscura.inference.adaptive_tuning</title>
<path fill="none" stroke="black" d="M1541.78,-19.8C1342.4,-22.48 764.43,-33.18 273.31,-71.98"/>
<polygon fill="black" stroke="black" points="263.19,-72.78 272.8,-67.51 268.17,-72.39 273.15,-71.99 273.15,-71.99 273.15,-71.99 268.17,-72.39 273.51,-76.48 263.19,-72.78 263.19,-72.78"/>
</g>
<!-- oscura.inference.alignment -->
<g id="node3" class="node">
<title>oscura.inference.alignment</title>
<polygon fill="#77aadd" stroke="#77aadd" points="501.5,-108 281.5,-108 281.5,-72 501.5,-72 501.5,-108"/>
<text text-anchor="middle" x="391.5" y="-86.3" font-family="Times,serif" font-size="14.00">oscura.inference.alignment</text>
</g>
<!-- oscura.inference&#45;&gt;oscura.inference.alignment -->
<g id="edge2" class="edge">
<title>oscura.inference&#45;&gt;oscura.inference.alignment</title>
<path fill="none" stroke="black" d="M1541.78,-20.15C1367.37,-23.44 907.03,-35.1 511.84,-72.03"/>
<polygon fill="black" stroke="black" points="501.64,-72.99 511.17,-67.58 506.61,-72.52 511.59,-72.06 511.59,-72.06 511.59,-72.06 506.61,-72.52 512.01,-76.54 501.64,-72.99 501.64,-72.99"/>
</g>
<!-- oscura.inference.bayesian -->
<g id="node4" class="node">
<title>oscura.inference.bayesian</title>
<polygon fill="#77aadd" stroke="#77aadd" points="731,-108 520,-108 520,-72 731,-72 731,-108"/>
<text text-anchor="middle" x="625.5" y="-86.3" font-family="Times,serif" font-size="14.00">oscura.inference.bayesian</text>
</g>
<!-- oscura.inference&#45;&gt;oscura.inference.bayesian -->
<g id="edge3" class="edge">
<title>oscura.inference&#45;&gt;oscura.inference.bayesian</title>
<path fill="none" stroke="black" d="M1541.75,-21.26C1394.03,-26.38 1045.03,-40.81 741.38,-71.97"/>
<polygon fill="black" stroke="black" points="731.05,-73.04 740.53,-67.53 736.02,-72.52 741,-72.01 741,-72.01 741,-72.01 736.02,-72.52 741.46,-76.48 731.05,-73.04 731.05,-73.04"/>
</g>
<!-- oscura.inference.binary -->
<g id="node5" class="node">
<title>oscura.inference.binary</title>
<polygon fill="#77aadd" stroke="#77aadd" points="943.5,-108 749.5,-108 749.5,-72 943.5,-72 943.5,-108"/>
<text text-anchor="middle" x="846.5" y="-86.3" font-family="Times,serif" font-size="14.00">oscura.inference.binary</text>
</g>
<!-- oscura.inference&#45;&gt;oscura.inference.binary -->
<g id="edge4" class="edge">
<title>oscura.inference&#45;&gt;oscura.inference.binary</title>
<path fill="none" stroke="black" d="M1541.91,-22.88C1422.26,-29.78 1173.91,-45.84 953.64,-71.92"/>
<polygon fill="black" stroke="black" points="943.5,-73.13 952.9,-67.47 948.47,-72.54 953.43,-71.94 953.43,-71.94 953.43,-71.94 948.47,-72.54 953.97,-76.41 943.5,-73.13 943.5,-73.13"/>
</g>
<!-- oscura.inference.logic -->
<g id="node6" class="node">
<title>oscura.inference.logic</title>
<polygon fill="#77aadd" stroke="#77aadd" points="1143.5,-108 961.5,-108 961.5,-72 1143.5,-72 1143.5,-108"/>
<text text-anchor="middle" x="1052.5" y="-86.3" font-family="Times,serif" font-size="14.00">oscura.inference.logic</text>
</g>
<!-- oscura.inference&#45;&gt;oscura.inference.logic -->
<g id="edge5" class="edge">
<title>oscura.inference&#45;&gt;oscura.inference.logic</title>
<path fill="none" stroke="black" d="M1541.64,-26.11C1450.99,-35.35 1290.4,-52.61 1153.5,-72 1153.4,-72.01 1153.3,-72.03 1153.19,-72.04"/>
<polygon fill="black" stroke="black" points="1143.58,-73.44 1152.83,-67.55 1148.53,-72.72 1153.48,-72 1153.48,-72 1153.48,-72 1148.53,-72.72 1154.13,-76.45 1143.58,-73.44 1143.58,-73.44"/>
</g>
<!-- oscura.inference.message_format -->
<g id="node7" class="node">
<title>oscura.inference.message_format</title>
<polygon fill="#77aadd" stroke="#77aadd" points="1427,-108 1162,-108 1162,-72 1427,-72 1427,-108"/>
<text text-anchor="middle" x="1294.5" y="-86.3" font-family="Times,serif" font-size="14.00">oscura.inference.message_format</text>
</g>
<!-- oscura.inference&#45;&gt;oscura.inference.message_format -->
<g id="edge6" class="edge">
<title>oscura.inference&#45;&gt;oscura.inference.message_format</title>
<path fill="none" stroke="black" d="M1541.91,-34.71C1494.55,-45.1 1432.16,-58.79 1381.87,-69.83"/>
<polygon fill="black" stroke="black" points="1371.99,-72 1380.79,-65.46 1376.87,-70.92 1381.75,-69.85 1381.75,-69.85 1381.75,-69.85 1376.87,-70.92 1382.72,-74.25 1371.99,-72 1371.99,-72"/>
</g>
<!-- oscura.inference.protocol -->
<g id="node8" class="node">
<title>oscura.inference.protocol</title>
<polygon fill="#77aadd" stroke="#77aadd" points="1651.5,-108 1445.5,-108 1445.5,-72 1651.5,-72 1651.5,-108"/>
<text text-anchor="middle" x="1548.5" y="-86.3" font-family="Times,serif" font-size="14.00">oscura.inference.protocol</text>
</g>
<!-- oscura.inference&#45;&gt;oscura.inference.protocol -->
<g id="edge7" class="edge">
<title>oscura.inference&#45;&gt;oscura.inference.protocol</title>
<path fill="none" stroke="black" d="M1597.43,-36.3C1589.56,-44.78 1579.94,-55.14 1571.33,-64.42"/>
<polygon fill="black" stroke="black" points="1564.38,-71.9 1567.89,-61.51 1567.78,-68.23 1571.19,-64.57 1571.19,-64.57 1571.19,-64.57 1567.78,-68.23 1574.48,-67.63 1564.38,-71.9 1564.38,-71.9"/>
</g>
<!-- oscura.inference.protocol_dsl -->
<g id="node9" class="node">
<title>oscura.inference.protocol_dsl</title>
<polygon fill="#77aadd" stroke="#77aadd" points="1875.5,-180 1641.5,-180 1641.5,-144 1875.5,-144 1875.5,-180"/>
<text text-anchor="middle" x="1758.5" y="-158.3" font-family="Times,serif" font-size="14.00">oscura.inference.protocol_dsl</text>
</g>
<!-- oscura.inference&#45;&gt;oscura.inference.protocol_dsl -->
<g id="edge8" class="edge">
<title>oscura.inference&#45;&gt;oscura.inference.protocol_dsl</title>
<path fill="none" stroke="black" d="M1629.32,-36.08C1646.32,-54.26 1674.29,-83.69 1699.5,-108 1709.59,-117.73 1720.98,-128.1 1731.05,-137.06"/>
<polygon fill="black" stroke="black" points="1738.79,-143.91 1728.32,-140.66 1735.04,-140.6 1731.3,-137.29 1731.3,-137.29 1731.3,-137.29 1735.04,-140.6 1734.28,-133.92 1738.79,-143.91 1738.79,-143.91"/>
</g>
<!-- oscura.inference.protocol_library -->
<g id="node10" class="node">
<title>oscura.inference.protocol_library</title>
<polygon fill="#77aadd" stroke="#77aadd" points="1969,-108 1708,-108 1708,-72 1969,-72 1969,-108"/>
<text text-anchor="middle" x="1838.5" y="-86.3" font-family="Times,serif" font-size="14.00">oscura.inference.protocol_library</text>
</g>
<!-- oscura.inference&#45;&gt;oscura.inference.protocol_library -->
<g id="edge9" class="edge">
<title>oscura.inference&#45;&gt;oscura.inference.protocol_library</title>
<path fill="none" stroke="black" d="M1668.25,-36.03C1700.1,-45.94 1740.42,-58.49 1773.83,-68.88"/>
<polygon fill="black" stroke="black" points="1783.5,-71.89 1772.62,-73.22 1778.73,-70.4 1773.95,-68.92 1773.95,-68.92 1773.95,-68.92 1778.73,-70.4 1775.29,-64.62 1783.5,-71.89 1783.5,-71.89"/>
</g>
<!-- oscura.inference.sequences -->
<g id="node11" class="node">
<title>oscura.inference.sequences</title>
<polygon fill="#77aadd" stroke="#77aadd" points="2209.5,-108 1987.5,-108 1987.5,-72 2209.5,-72 2209.5,-108"/>
<text text-anchor="middle" x="2098.5" y="-86.3" font-family="Times,serif" font-size="14.00">oscura.inference.sequences</text>
</g>
<!-- oscura.inference&#45;&gt;oscura.inference.sequences -->
<g id="edge10" class="edge">
<title>oscura.inference&#45;&gt;oscura.inference.sequences</title>
<path fill="none" stroke="black" d="M1685.06,-29.33C1761.84,-40.41 1885.14,-58.21 1977.13,-71.48"/>
<polygon fill="black" stroke="black" points="1987.06,-72.92 1976.52,-75.94 1982.11,-72.2 1977.16,-71.49 1977.16,-71.49 1977.16,-71.49 1982.11,-72.2 1977.81,-67.03 1987.06,-72.92 1987.06,-72.92"/>
</g>
<!-- oscura.inference.signal_intelligence -->
<g id="node12" class="node">
<title>oscura.inference.signal_intelligence</title>
<polygon fill="#77aadd" stroke="#77aadd" points="2509,-108 2228,-108 2228,-72 2509,-72 2509,-108"/>
<text text-anchor="middle" x="2368.5" y="-86.3" font-family="Times,serif" font-size="14.00">oscura.inference.signal_intelligence</text>
</g>
<!-- oscura.inference&#45;&gt;oscura.inference.signal_intelligence -->
<g id="edge11" class="edge">
<title>oscura.inference&#45;&gt;oscura.inference.signal_intelligence</title>
<path fill="none" stroke="black" d="M1685.27,-24.69C1796.73,-33.66 2018.47,-52.04 2217.91,-71.96"/>
<polygon fill="black" stroke="black" points="2227.99,-72.97 2217.59,-76.45 2223.01,-72.47 2218.04,-71.97 2218.04,-71.97 2218.04,-71.97 2223.01,-72.47 2218.48,-67.49 2227.99,-72.97 2227.99,-72.97"/>
</g>
<!-- oscura.inference.spectral -->
<g id="node13" class="node">
<title>oscura.inference.spectral</title>
<polygon fill="#77aadd" stroke="#77aadd" points="2733.5,-108 2527.5,-108 2527.5,-72 2733.5,-72 2733.5,-108"/>
<text text-anchor="middle" x="2630.5" y="-86.3" font-family="Times,serif" font-size="14.00">oscura.inference.spectral</text>
</g>
<!-- oscura.inference&#45;&gt;oscura.inference.spectral -->
<g id="edge12" class="edge">
<title>oscura.inference&#45;&gt;oscura.inference.spectral</title>
<path fill="none" stroke="black" d="M1685.25,-20.96C1836.92,-25.58 2201.42,-39.26 2517.14,-71.92"/>
<polygon fill="black" stroke="black" points="2527.41,-72.99 2517,-76.43 2522.44,-72.47 2517.46,-71.95 2517.46,-71.95 2517.46,-71.95 2522.44,-72.47 2517.93,-67.47 2527.41,-72.99 2527.41,-72.99"/>
</g>
<!-- oscura.inference.state_machine -->
<g id="node14" class="node">
<title>oscura.inference.state_machine</title>
<polygon fill="#77aadd" stroke="#77aadd" points="3003,-108 2752,-108 2752,-72 3003,-72 3003,-108"/>
<text text-anchor="middle" x="2877.5" y="-86.3" font-family="Times,serif" font-size="14.00">oscura.inference.state_machine</text>
</g>
<!-- oscura.inference&#45;&gt;oscura.inference.state_machine -->
<g id="edge13" class="edge">
<title>oscura.inference&#45;&gt;oscura.inference.state_machine</title>
<path fill="none" stroke="black" d="M1685.29,-20.42C1862.66,-24.35 2335.99,-37.38 2741.61,-71.97"/>
<polygon fill="black" stroke="black" points="2751.78,-72.84 2741.43,-76.47 2746.8,-72.41 2741.82,-71.99 2741.82,-71.99 2741.82,-71.99 2746.8,-72.41 2742.2,-67.5 2751.78,-72.84 2751.78,-72.84"/>
</g>
<!-- oscura.inference.stream -->
<g id="node15" class="node">
<title>oscura.inference.stream</title>
<polygon fill="#77aadd" stroke="#77aadd" points="3219.5,-108 3021.5,-108 3021.5,-72 3219.5,-72 3219.5,-108"/>
<text text-anchor="middle" x="3120.5" y="-86.3" font-family="Times,serif" font-size="14.00">oscura.inference.stream</text>
</g>
<!-- oscura.inference&#45;&gt;oscura.inference.stream -->
<g id="edge14" class="edge">
<title>oscura.inference&#45;&gt;oscura.inference.stream</title>
<path fill="none" stroke="black" d="M1685.04,-18.73C1890.1,-18.59 2497.61,-22.63 3011.18,-71.95"/>
<polygon fill="black" stroke="black" points="3021.39,-72.93 3011.01,-76.45 3016.42,-72.45 3011.44,-71.97 3011.44,-71.97 3011.44,-71.97 3016.42,-72.45 3011.87,-67.49 3021.39,-72.93 3021.39,-72.93"/>
</g>
<!-- oscura.inference.protocol_library&#45;&gt;oscura.inference.protocol_dsl -->
<g id="edge15" class="edge">
<title>oscura.inference.protocol_library&#45;&gt;oscura.inference.protocol_dsl</title>
<path fill="none" stroke="black" d="M1818.72,-108.3C1808.75,-117.03 1796.49,-127.76 1785.64,-137.25"/>
<polygon fill="black" stroke="black" points="1778.05,-143.9 1782.61,-133.92 1781.81,-140.6 1785.57,-137.31 1785.57,-137.31 1785.57,-137.31 1781.81,-140.6 1788.54,-140.7 1778.05,-143.9 1778.05,-143.9"/>
</g>
</g>
</svg>
