<?xml version="1.0" encoding="UTF-8" standalone="no"?>
<!DOCTYPE svg PUBLIC "-//W3C//DTD SVG 1.1//EN"
 "http://www.w3.org/Graphics/SVG/1.1/DTD/svg11.dtd">
<!-- Generated by graphviz version 2.43.0 (0)
 -->
<!-- Title: packages_loaders Pages: 1 -->
<svg width="2929pt" height="116pt"
 viewBox="0.00 0.00 2929.00 116.00" xmlns="http://www.w3.org/2000/svg" xmlns:xlink="http://www.w3.org/1999/xlink">
<g id="graph0" class="graph" transform="scale(1 1) rotate(0) translate(4 112)">
<title>packages_loaders</title>
<polygon fill="white" stroke="transparent" points="-4,4 -4,-112 2925,-112 2925,4 -4,4"/>
<!-- oscura.loaders -->
<g id="node1" class="node">
<title>oscura.loaders</title>
<polygon fill="#77aadd" stroke="#77aadd" points="1520,-36 1391,-36 1391,0 1520,0 1520,-36"/>
<text text-anchor="middle" x="1455.5" y="-14.3" font-family="Times,serif" font-size="14.00">oscura.loaders</text>
</g>
<!-- oscura.loaders&#45;&gt;oscura.loaders -->
<g id="edge1" class="edge">
<title>oscura.loaders&#45;&gt;oscura.loaders</title>
<path fill="none" stroke="black" d="M1520.18,-5.51C1530.74,-7.3 1538,-11.46 1538,-18 1538,-22.19 1535.02,-25.4 1530.1,-27.64"/>
<polygon fill="black" stroke="black" points="1520.18,-30.49 1528.55,-23.41 1524.99,-29.11 1529.79,-27.73 1529.79,-27.73 1529.79,-27.73 1524.99,-29.11 1531.03,-32.06 1520.18,-30.49 1520.18,-30.49"/>
</g>
<!-- oscura.loaders.configurable -->
<g id="node3" class="node">
<title>oscura.loaders.configurable</title>
<polygon fill="#77aadd" stroke="#77aadd" points="1865.5,-108 1643.5,-108 1643.5,-72 1865.5,-72 1865.5,-108"/>
<text text-anchor="middle" x="1754.5" y="-86.3" font-family="Times,serif" font-size="14.00">oscura.loaders.configurable</text>
</g>
<!-- oscura.loaders&#45;&gt;oscura.loaders.configurable -->
<g id="edge2" class="edge">
<title>oscura.loaders&#45;&gt;oscura.loaders.configurable</title>
<path fill="none" stroke="black" d="M1520.01,-34.1C1564.41,-44.5 1623.78,-58.4 1671.67,-69.61"/>
<polygon fill="black" stroke="black" points="1681.7,-71.96 1670.94,-74.06 1676.84,-70.82 1671.97,-69.68 1671.97,-69.68 1671.97,-69.68 1676.84,-70.82 1672.99,-65.3 1681.7,-71.96 1681.7,-71.96"/>
</g>
<!-- oscura.loaders.csv_loader -->
<g id="node5" class="node">
<title>oscura.loaders.csv_loader</title>
<polygon fill="#77aadd" stroke="#77aadd" points="209,-108 0,-108 0,-72 209,-72 209,-108"/>
<text text-anchor="middle" x="104.5" y="-86.3" font-family="Times,serif" font-size="14.00">oscura.loaders.csv_loader</text>
</g>
<!-- oscura.loaders&#45;&gt;oscura.loaders.csv_loader -->
<g id="edge3" class="edge">
<title>oscura.loaders&#45;&gt;oscura.loaders.csv_loader</title>
<path fill="none" stroke="black" d="M1390.95,-19.37C1208.54,-20.95 673.62,-29.07 219.17,-72.01"/>
<polygon fill="black" stroke="black" points="209.12,-72.96 218.65,-67.53 214.1,-72.49 219.08,-72.01 219.08,-72.01 219.08,-72.01 214.1,-72.49 219.5,-76.49 209.12,-72.96 209.12,-72.96"/>
</g>
<!-- oscura.loaders.hdf5_loader -->
<g id="node7" class="node">
<title>oscura.loaders.hdf5_loader</title>
<polygon fill="#77aadd" stroke="#77aadd" points="445.5,-108 227.5,-108 227.5,-72 445.5,-72 445.5,-108"/>
<text text-anchor="middle" x="336.5" y="-86.3" font-family="Times,serif" font-size="14.00">oscura.loaders.hdf5_loader</text>
</g>
<!-- oscura.loaders&#45;&gt;oscura.loaders.hdf5_loader -->
<g id="edge4" class="edge">
<title>oscura.loaders&#45;&gt;oscura.loaders.hdf5_loader</title>
<path fill="none" stroke="black" d="M1390.94,-20.4C1233.07,-24.26 814.8,-37.11 455.82,-71.92"/>
<polygon fill="black" stroke="black" points="445.75,-72.91 455.26,-67.46 450.73,-72.42 455.7,-71.93 455.7,-71.93 455.7,-71.93 450.73,-72.42 456.14,-76.41 445.75,-72.91 445.75,-72.91"/>
</g>
<!-- oscura.loaders.lazy -->
<g id="node8" class="node">
<title>oscura.loaders.lazy</title>
<polygon fill="#77aadd" stroke="#77aadd" points="2045.5,-108 1883.5,-108 1883.5,-72 2045.5,-72 2045.5,-108"/>
<text text-anchor="middle" x="1964.5" y="-86.3" font-family="Times,serif" font-size="14.00">oscura.loaders.lazy</text>
</g>
<!-- oscura.loaders&#45;&gt;oscura.loaders.lazy -->
<g id="edge5" class="edge">
<title>oscura.loaders&#45;&gt;oscura.loaders.lazy</title>
<path fill="none" stroke="black" d="M1520.24,-31.58C1529.37,-33.17 1538.66,-34.7 1547.5,-36 1688.9,-56.82 1728.14,-50.71 1872.96,-71.84"/>
<polygon fill="black" stroke="black" points="1883.11,-73.34 1872.56,-76.33 1878.17,-72.61 1873.22,-71.87 1873.22,-71.87 1873.22,-71.87 1878.17,-72.61 1873.88,-67.42 1883.11,-73.34 1883.11,-73.34"/>
</g>
<!-- oscura.loaders.numpy_loader -->
<g id="node9" class="node">
<title>oscura.loaders.numpy_loader</title>
<polygon fill="#77aadd" stroke="#77aadd" points="2297.5,-108 2063.5,-108 2063.5,-72 2297.5,-72 2297.5,-108"/>
<text text-anchor="middle" x="2180.5" y="-86.3" font-family="Times,serif" font-size="14.00">oscura.loaders.numpy_loader</text>
</g>
<!-- oscura.loaders&#45;&gt;oscura.loaders.numpy_loader -->
<g id="edge6" class="edge">
<title>oscura.loaders&#45;&gt;oscura.loaders.numpy_loader</title>
<path fill="none" stroke="black" d="M1520.2,-31.89C1529.34,-33.44 1538.64,-34.87 1547.5,-36 1768.3,-64.15 1828.04,-49.34 2053.34,-71.93"/>
<polygon fill="black" stroke="black" points="2063.49,-72.96 2053.09,-76.42 2058.52,-72.45 2053.55,-71.95 2053.55,-71.95 2053.55,-71.95 2058.52,-72.45 2054,-67.47 2063.49,-72.96 2063.49,-72.96"/>
</g>
<!-- oscura.loaders.pcap -->
<g id="node10" class="node">
<title>oscura.loaders.pcap</title>
<polygon fill="#77aadd" stroke="#77aadd" points="2483,-108 2316,-108 2316,-72 2483,-72 2483,-108"/>
<text text-anchor="middle" x="2399.5" y="-86.3" font-family="Times,serif" font-size="14.00">oscura.loaders.pcap</text>
</g>
<!-- oscura.loaders&#45;&gt;oscura.loaders.pcap -->
<g id="edge7" class="edge">
<title>oscura.loaders&#45;&gt;oscura.loaders.pcap</title>
<path fill="none" stroke="black" d="M1520.17,-32.09C1529.32,-33.6 1538.63,-34.97 1547.5,-36 1879.7,-74.39 1969.24,-34.35 2305.89,-72.04"/>
<polygon fill="black" stroke="black" points="2315.93,-73.18 2305.48,-76.52 2310.96,-72.62 2305.99,-72.05 2305.99,-72.05 2305.99,-72.05 2310.96,-72.62 2306.5,-67.58 2315.93,-73.18 2315.93,-73.18"/>
</g>
<!-- oscura.loaders.preprocessing -->
<g id="node11" class="node">
<title>oscura.loaders.preprocessing</title>
<polygon fill="#77aadd" stroke="#77aadd" points="2736,-108 2501,-108 2501,-72 2736,-72 2736,-108"/>
<text text-anchor="middle" x="2618.5" y="-86.3" font-family="Times,serif" font-size="14.00">oscura.loaders.preprocessing</text>
</g>
<!-- oscura.loaders&#45;&gt;oscura.loaders.preprocessing -->
<g id="edge8" class="edge">
<title>oscura.loaders&#45;&gt;oscura.loaders.preprocessing</title>
<path fill="none" stroke="black" d="M1520.16,-32.16C1529.31,-33.67 1538.62,-35.02 1547.5,-36 1961.88,-81.93 2071.98,-36.6 2490.57,-71.89"/>
<polygon fill="black" stroke="black" points="2500.83,-72.76 2490.49,-76.39 2495.85,-72.34 2490.87,-71.91 2490.87,-71.91 2490.87,-71.91 2495.85,-72.34 2491.25,-67.43 2500.83,-72.76 2500.83,-72.76"/>
</g>
<!-- oscura.loaders.rigol -->
<g id="node12" class="node">
<title>oscura.loaders.rigol</title>
<polygon fill="#77aadd" stroke="#77aadd" points="2921,-108 2754,-108 2754,-72 2921,-72 2921,-108"/>
<text text-anchor="middle" x="2837.5" y="-86.3" font-family="Times,serif" font-size="14.00">oscura.loaders.rigol</text>
</g>
<!-- oscura.loaders&#45;&gt;oscura.loaders.rigol -->
<g id="edge9" class="edge">
<title>oscura.loaders&#45;&gt;oscura.loaders.rigol</title>
<path fill="none" stroke="black" d="M1520.16,-32.23C1529.3,-33.73 1538.62,-35.05 1547.5,-36 2073.81,-92.2 2214.05,-16.41 2743.65,-71.9"/>
<polygon fill="black" stroke="black" points="2753.84,-72.98 2743.42,-76.4 2748.87,-72.46 2743.9,-71.93 2743.9,-71.93 2743.9,-71.93 2748.87,-72.46 2744.37,-67.45 2753.84,-72.98 2753.84,-72.98"/>
</g>
<!-- oscura.loaders.sigrok -->
<g id="node13" class="node">
<title>oscura.loaders.sigrok</title>
<polygon fill="#77aadd" stroke="#77aadd" points="641.5,-108 463.5,-108 463.5,-72 641.5,-72 641.5,-108"/>
<text text-anchor="middle" x="552.5" y="-86.3" font-family="Times,serif" font-size="14.00">oscura.loaders.sigrok</text>
</g>
<!-- oscura.loaders&#45;&gt;oscura.loaders.sigrok -->
<g id="edge10" class="edge">
<title>oscura.loaders&#45;&gt;oscura.loaders.sigrok</title>
<path fill="none" stroke="black" d="M1390.85,-20.93C1255.51,-25.48 932.34,-38.97 651.61,-71.94"/>
<polygon fill="black" stroke="black" points="641.64,-73.12 651.04,-67.48 646.6,-72.54 651.57,-71.95 651.57,-71.95 651.57,-71.95 646.6,-72.54 652.1,-76.42 641.64,-73.12 641.64,-73.12"/>
</g>
<!-- oscura.loaders.tdms -->
<g id="node14" class="node">
<title>oscura.loaders.tdms</title>
<polygon fill="#77aadd" stroke="#77aadd" points="829.5,-108 659.5,-108 659.5,-72 829.5,-72 829.5,-108"/>
<text text-anchor="middle" x="744.5" y="-86.3" font-family="Times,serif" font-size="14.00">oscura.loaders.tdms</text>
</g>
<!-- oscura.loaders&#45;&gt;oscura.loaders.tdms -->
<g id="edge11" class="edge">
<title>oscura.loaders&#45;&gt;oscura.loaders.tdms</title>
<path fill="none" stroke="black" d="M1391,-22.61C1280.44,-29.21 1047.49,-45 839.82,-72.04"/>
<polygon fill="black" stroke="black" points="829.64,-73.38 838.97,-67.61 834.59,-72.73 839.55,-72.07 839.55,-72.07 839.55,-72.07 834.59,-72.73 840.14,-76.54 829.64,-73.38 829.64,-73.38"/>
</g>
<!-- oscura.loaders.tektronix -->
<g id="node15" class="node">
<title>oscura.loaders.tektronix</title>
<polygon fill="#77aadd" stroke="#77aadd" points="1047,-108 848,-108 848,-72 1047,-72 1047,-108"/>
<text text-anchor="middle" x="947.5" y="-86.3" font-family="Times,serif" font-size="14.00">oscura.loaders.tektronix</text>
</g>
<!-- oscura.loaders&#45;&gt;oscura.loaders.tektronix -->
<g id="edge12" class="edge">
<title>oscura.loaders&#45;&gt;oscura.loaders.tektronix</title>
<path fill="none" stroke="black" d="M1390.82,-27.13C1313.93,-36.91 1181.46,-54.06 1057.34,-71.9"/>
<polygon fill="black" stroke="black" points="1047.28,-73.35 1056.53,-67.47 1052.23,-72.63 1057.18,-71.92 1057.18,-71.92 1057.18,-71.92 1052.23,-72.63 1057.82,-76.37 1047.28,-73.35 1047.28,-73.35"/>
</g>
<!-- oscura.loaders.validation -->
<g id="node16" class="node">
<title>oscura.loaders.validation</title>
<polygon fill="#77aadd" stroke="#77aadd" points="1269.5,-108 1065.5,-108 1065.5,-72 1269.5,-72 1269.5,-108"/>
<text text-anchor="middle" x="1167.5" y="-86.3" font-family="Times,serif" font-size="14.00">oscura.loaders.validation</text>
</g>
<!-- oscura.loaders&#45;&gt;oscura.loaders.validation -->
<g id="edge13" class="edge">
<title>oscura.loaders&#45;&gt;oscura.loaders.validation</title>
<path fill="none" stroke="black" d="M1390.87,-34.71C1348.38,-45.04 1292.48,-58.62 1247.23,-69.62"/>
<polygon fill="black" stroke="black" points="1237.46,-72 1246.11,-65.26 1242.32,-70.82 1247.17,-69.63 1247.17,-69.63 1247.17,-69.63 1242.32,-70.82 1248.24,-74.01 1237.46,-72 1237.46,-72"/>
</g>
<!-- oscura.loaders.vcd -->
<g id="node17" class="node">
<title>oscura.loaders.vcd</title>
<polygon fill="#77aadd" stroke="#77aadd" points="1445.5,-108 1287.5,-108 1287.5,-72 1445.5,-72 1445.5,-108"/>
<text text-anchor="middle" x="1366.5" y="-86.3" font-family="Times,serif" font-size="14.00">oscura.loaders.vcd</text>
</g>
<!-- oscura.loaders&#45;&gt;oscura.loaders.vcd -->
<g id="edge14" class="edge">
<title>oscura.loaders&#45;&gt;oscura.loaders.vcd</title>
<path fill="none" stroke="black" d="M1433.5,-36.3C1422.29,-45.12 1408.5,-55.97 1396.35,-65.53"/>
<polygon fill="black" stroke="black" points="1388.25,-71.9 1393.33,-62.18 1392.18,-68.8 1396.11,-65.71 1396.11,-65.71 1396.11,-65.71 1392.18,-68.8 1398.89,-69.25 1388.25,-71.9 1388.25,-71.9"/>
</g>
<!-- oscura.loaders.wav -->
<g id="node18" class="node">
<title>oscura.loaders.wav</title>
<polygon fill="#77aadd" stroke="#77aadd" points="1625.5,-108 1463.5,-108 1463.5,-72 1625.5,-72 1625.5,-108"/>
<text text-anchor="middle" x="1544.5" y="-86.3" font-family="Times,serif" font-size="14.00">oscura.loaders.wav</text>
</g>
<!-- oscura.loaders&#45;&gt;oscura.loaders.wav -->
<g id="edge15" class="edge">
<title>oscura.loaders&#45;&gt;oscura.loaders.wav</title>
<path fill="none" stroke="black" d="M1477.5,-36.3C1488.71,-45.12 1502.5,-55.97 1514.65,-65.53"/>
<polygon fill="black" stroke="black" points="1522.75,-71.9 1512.11,-69.25 1518.82,-68.8 1514.89,-65.71 1514.89,-65.71 1514.89,-65.71 1518.82,-68.8 1517.67,-62.18 1522.75,-71.9 1522.75,-71.9"/>
</g>
<!-- oscura.loaders.binary -->
<g id="node2" class="node">
<title>oscura.loaders.binary</title>
<polygon fill="#77aadd" stroke="#77aadd" points="1735,-36 1556,-36 1556,0 1735,0 1735,-36"/>
<text text-anchor="middle" x="1645.5" y="-14.3" font-family="Times,serif" font-size="14.00">oscura.loaders.binary</text>
</g>
<!-- oscura.loaders.csv -->
<g id="node4" class="node">
<title>oscura.loaders.csv</title>
<polygon fill="#77aadd" stroke="#77aadd" points="183,-36 26,-36 26,0 183,0 183,-36"/>
<text text-anchor="middle" x="104.5" y="-14.3" font-family="Times,serif" font-size="14.00">oscura.loaders.csv</text>
</g>
<!-- oscura.loaders.csv&#45;&gt;oscura.loaders.csv_loader -->
<g id="edge16" class="edge">
<title>oscura.loaders.csv&#45;&gt;oscura.loaders.csv_loader</title>
<path fill="none" stroke="black" d="M104.5,-36.3C104.5,-44.02 104.5,-53.29 104.5,-61.89"/>
<polygon fill="black" stroke="black" points="104.5,-71.9 100,-61.9 104.5,-66.9 104.5,-61.9 104.5,-61.9 104.5,-61.9 104.5,-66.9 109,-61.9 104.5,-71.9 104.5,-71.9"/>
</g>
<!-- oscura.loaders.hdf5 -->
<g id="node6" class="node">
<title>oscura.loaders.hdf5</title>
<polygon fill="#77aadd" stroke="#77aadd" points="419.5,-36 253.5,-36 253.5,0 419.5,0 419.5,-36"/>
<text text-anchor="middle" x="336.5" y="-14.3" font-family="Times,serif" font-size="14.00">oscura.loaders.hdf5</text>
</g>
<!-- oscura.loaders.hdf5&#45;&gt;oscura.loaders.hdf5_loader -->
<g id="edge17" class="edge">
<title>oscura.loaders.hdf5&#45;&gt;oscura.loaders.hdf5_loader</title>
<path fill="none" stroke="black" d="M336.5,-36.3C336.5,-44.02 336.5,-53.29 336.5,-61.89"/>
<polygon fill="black" stroke="black" points="336.5,-71.9 332,-61.9 336.5,-66.9 336.5,-61.9 336.5,-61.9 336.5,-61.9 336.5,-66.9 341,-61.9 336.5,-71.9 336.5,-71.9"/>
</g>
</g>
</svg>
