<?xml version="1.0" encoding="UTF-8" standalone="no"?>
<!DOCTYPE svg PUBLIC "-//W3C//DTD SVG 1.1//EN"
 "http://www.w3.org/Graphics/SVG/1.1/DTD/svg11.dtd">
<!-- Generated by graphviz version 2.43.0 (0)
 -->
<!-- Title: packages_reporting Pages: 1 -->
<svg width="3924pt" height="404pt"
 viewBox="0.00 0.00 3924.32 404.00" xmlns="http://www.w3.org/2000/svg" xmlns:xlink="http://www.w3.org/1999/xlink">
<g id="graph0" class="graph" transform="scale(1 1) rotate(0) translate(4 400)">
<title>packages_reporting</title>
<polygon fill="white" stroke="transparent" points="-4,4 -4,-400 3920.32,-400 3920.32,4 -4,4"/>
<!-- oscura.reporting -->
<g id="node1" class="node">
<title>oscura.reporting</title>
<polygon fill="#77aadd" stroke="#77aadd" points="1600.32,-36 1456.32,-36 1456.32,0 1600.32,0 1600.32,-36"/>
<text text-anchor="middle" x="1528.32" y="-14.3" font-family="Times,serif" font-size="14.00">oscura.reporting</text>
</g>
<!-- oscura.reporting.analyze -->
<g id="node3" class="node">
<title>oscura.reporting.analyze</title>
<polygon fill="#77aadd" stroke="#77aadd" points="784.82,-108 581.82,-108 581.82,-72 784.82,-72 784.82,-108"/>
<text text-anchor="middle" x="683.32" y="-86.3" font-family="Times,serif" font-size="14.00">oscura.reporting.analyze</text>
</g>
<!-- oscura.reporting&#45;&gt;oscura.reporting.analyze -->
<g id="edge1" class="edge">
<title>oscura.reporting&#45;&gt;oscura.reporting.analyze</title>
<path fill="none" stroke="black" d="M1456.24,-22.49C1325.21,-29.23 1039.3,-45.73 799.32,-72 798.01,-72.14 796.69,-72.29 795.37,-72.44"/>
<polygon fill="black" stroke="black" points="785.11,-73.65 794.51,-68.01 790.08,-73.07 795.04,-72.48 795.04,-72.48 795.04,-72.48 790.08,-73.07 795.57,-76.95 785.11,-73.65 785.11,-73.65"/>
</g>
<!-- oscura.reporting.auto_report -->
<g id="node4" class="node">
<title>oscura.reporting.auto_report</title>
<polygon fill="#77aadd" stroke="#77aadd" points="250.32,-108 18.32,-108 18.32,-72 250.32,-72 250.32,-108"/>
<text text-anchor="middle" x="134.32" y="-86.3" font-family="Times,serif" font-size="14.00">oscura.reporting.auto_report</text>
</g>
<!-- oscura.reporting&#45;&gt;oscura.reporting.auto_report -->
<g id="edge2" class="edge">
<title>oscura.reporting&#45;&gt;oscura.reporting.auto_report</title>
<path fill="none" stroke="black" d="M1456.2,-19.8C1262.83,-22.43 716.74,-33.01 264.32,-72 263.04,-72.11 261.76,-72.22 260.47,-72.34"/>
<polygon fill="black" stroke="black" points="250.5,-73.29 260.02,-67.86 255.47,-72.82 260.45,-72.34 260.45,-72.34 260.45,-72.34 255.47,-72.82 260.88,-76.82 250.5,-73.29 250.5,-73.29"/>
</g>
<!-- oscura.reporting.batch -->
<g id="node5" class="node">
<title>oscura.reporting.batch</title>
<polygon fill="#77aadd" stroke="#77aadd" points="1744.32,-108 1556.32,-108 1556.32,-72 1744.32,-72 1744.32,-108"/>
<text text-anchor="middle" x="1650.32" y="-86.3" font-family="Times,serif" font-size="14.00">oscura.reporting.batch</text>
</g>
<!-- oscura.reporting&#45;&gt;oscura.reporting.batch -->
<g id="edge3" class="edge">
<title>oscura.reporting&#45;&gt;oscura.reporting.batch</title>
<path fill="none" stroke="black" d="M1558.16,-36.12C1574.26,-45.36 1594.32,-56.87 1611.6,-66.79"/>
<polygon fill="black" stroke="black" points="1620.36,-71.81 1609.44,-70.74 1616.02,-69.32 1611.68,-66.83 1611.68,-66.83 1611.68,-66.83 1616.02,-69.32 1613.92,-62.93 1620.36,-71.81 1620.36,-71.81"/>
</g>
<!-- oscura.reporting.chart_selection -->
<g id="node6" class="node">
<title>oscura.reporting.chart_selection</title>
<polygon fill="#77aadd" stroke="#77aadd" points="563.82,-108 306.82,-108 306.82,-72 563.82,-72 563.82,-108"/>
<text text-anchor="middle" x="435.32" y="-86.3" font-family="Times,serif" font-size="14.00">oscura.reporting.chart_selection</text>
</g>
<!-- oscura.reporting&#45;&gt;oscura.reporting.chart_selection -->
<g id="edge4" class="edge">
<title>oscura.reporting&#45;&gt;oscura.reporting.chart_selection</title>
<path fill="none" stroke="black" d="M1456.24,-21.32C1298.34,-26.76 909.86,-42.14 574.41,-71.85"/>
<polygon fill="black" stroke="black" points="564,-72.77 573.56,-67.4 568.98,-72.33 573.96,-71.89 573.96,-71.89 573.96,-71.89 568.98,-72.33 574.36,-76.37 564,-72.77 564,-72.77"/>
</g>
<!-- oscura.reporting.comparison -->
<g id="node7" class="node">
<title>oscura.reporting.comparison</title>
<polygon fill="#77aadd" stroke="#77aadd" points="2295.82,-108 2064.82,-108 2064.82,-72 2295.82,-72 2295.82,-108"/>
<text text-anchor="middle" x="2180.32" y="-86.3" font-family="Times,serif" font-size="14.00">oscura.reporting.comparison</text>
</g>
<!-- oscura.reporting&#45;&gt;oscura.reporting.comparison -->
<g id="edge5" class="edge">
<title>oscura.reporting&#45;&gt;oscura.reporting.comparison</title>
<path fill="none" stroke="black" d="M1600.58,-25.67C1701.4,-35.13 1889.93,-53.38 2050.32,-72 2051.8,-72.17 2053.29,-72.35 2054.79,-72.52"/>
<polygon fill="black" stroke="black" points="2064.8,-73.72 2054.34,-77 2059.83,-73.13 2054.87,-72.53 2054.87,-72.53 2054.87,-72.53 2059.83,-73.13 2055.4,-68.06 2064.8,-73.72 2064.8,-73.72"/>
</g>
<!-- oscura.reporting.config -->
<g id="node8" class="node">
<title>oscura.reporting.config</title>
<polygon fill="#77aadd" stroke="#77aadd" points="550.82,-324 359.82,-324 359.82,-288 550.82,-288 550.82,-324"/>
<text text-anchor="middle" x="455.32" y="-302.3" font-family="Times,serif" font-size="14.00">oscura.reporting.config</text>
</g>
<!-- oscura.reporting&#45;&gt;oscura.reporting.config -->
<g id="edge6" class="edge">
<title>oscura.reporting&#45;&gt;oscura.reporting.config</title>
<path fill="none" stroke="black" d="M1456.1,-19.55C1324.36,-21.57 1050.81,-30.77 966.32,-72 906.98,-100.96 920.42,-145.19 864.32,-180 770.3,-238.33 647.16,-271.1 560.66,-288.31"/>
<polygon fill="black" stroke="black" points="550.82,-290.23 559.78,-283.9 555.73,-289.27 560.64,-288.32 560.64,-288.32 560.64,-288.32 555.73,-289.27 561.5,-292.73 550.82,-290.23 550.82,-290.23"/>
</g>
<!-- oscura.reporting.core -->
<g id="node14" class="node">
<title>oscura.reporting.core</title>
<polygon fill="#77aadd" stroke="#77aadd" points="1931.82,-396 1752.82,-396 1752.82,-360 1931.82,-360 1931.82,-396"/>
<text text-anchor="middle" x="1842.32" y="-374.3" font-family="Times,serif" font-size="14.00">oscura.reporting.core</text>
</g>
<!-- oscura.reporting&#45;&gt;oscura.reporting.core -->
<g id="edge7" class="edge">
<title>oscura.reporting&#45;&gt;oscura.reporting.core</title>
<path fill="none" stroke="black" d="M1600.57,-20.22C1934.54,-25.96 3316.11,-50.91 3405.32,-72 3496.46,-93.55 3596.32,-67.35 3596.32,-161 3596.32,-161 3596.32,-161 3596.32,-235 3596.32,-277.19 3597.57,-299.38 3563.32,-324 3497.28,-371.47 2299.45,-376.53 1942.13,-376.98"/>
<polygon fill="black" stroke="black" points="1932.06,-377 1942.05,-372.48 1937.06,-376.99 1942.06,-376.98 1942.06,-376.98 1942.06,-376.98 1937.06,-376.99 1942.06,-381.48 1932.06,-377 1932.06,-377"/>
</g>
<!-- oscura.reporting.core_formats -->
<g id="node15" class="node">
<title>oscura.reporting.core_formats</title>
<polygon fill="#77aadd" stroke="#77aadd" points="1308.32,-108 1066.32,-108 1066.32,-72 1308.32,-72 1308.32,-108"/>
<text text-anchor="middle" x="1187.32" y="-86.3" font-family="Times,serif" font-size="14.00">oscura.reporting.core_formats</text>
</g>
<!-- oscura.reporting&#45;&gt;oscura.reporting.core_formats -->
<g id="edge8" class="edge">
<title>oscura.reporting&#45;&gt;oscura.reporting.core_formats</title>
<path fill="none" stroke="black" d="M1456,-33.85C1404.73,-44.37 1335.49,-58.58 1280.14,-69.95"/>
<polygon fill="black" stroke="black" points="1270.32,-71.96 1279.22,-65.54 1275.22,-70.95 1280.12,-69.95 1280.12,-69.95 1280.12,-69.95 1275.22,-70.95 1281.03,-74.36 1270.32,-71.96 1270.32,-71.96"/>
</g>
<!-- oscura.reporting.engine -->
<g id="node17" class="node">
<title>oscura.reporting.engine</title>
<polygon fill="#77aadd" stroke="#77aadd" points="855.82,-180 658.82,-180 658.82,-144 855.82,-144 855.82,-180"/>
<text text-anchor="middle" x="757.32" y="-158.3" font-family="Times,serif" font-size="14.00">oscura.reporting.engine</text>
</g>
<!-- oscura.reporting&#45;&gt;oscura.reporting.engine -->
<g id="edge9" class="edge">
<title>oscura.reporting&#45;&gt;oscura.reporting.engine</title>
<path fill="none" stroke="black" d="M1456.09,-19.81C1309.02,-22.29 979.83,-32.23 875.32,-72 874.68,-72.24 822.64,-111.57 787.89,-137.86"/>
<polygon fill="black" stroke="black" points="779.9,-143.9 785.16,-134.28 783.89,-140.89 787.88,-137.87 787.88,-137.87 787.88,-137.87 783.89,-140.89 790.59,-141.46 779.9,-143.9 779.9,-143.9"/>
</g>
<!-- oscura.reporting.export -->
<g id="node18" class="node">
<title>oscura.reporting.export</title>
<polygon fill="#77aadd" stroke="#77aadd" points="1500.82,-180 1305.82,-180 1305.82,-144 1500.82,-144 1500.82,-180"/>
<text text-anchor="middle" x="1403.32" y="-158.3" font-family="Times,serif" font-size="14.00">oscura.reporting.export</text>
</g>
<!-- oscura.reporting&#45;&gt;oscura.reporting.export -->
<g id="edge10" class="edge">
<title>oscura.reporting&#45;&gt;oscura.reporting.export</title>
<path fill="none" stroke="black" d="M1513.24,-36.13C1491.28,-61.08 1450.37,-107.55 1425.12,-136.23"/>
<polygon fill="black" stroke="black" points="1418.45,-143.81 1421.68,-133.33 1421.75,-140.06 1425.05,-136.3 1425.05,-136.3 1425.05,-136.3 1421.75,-140.06 1428.43,-139.28 1418.45,-143.81 1418.45,-143.81"/>
</g>
<!-- oscura.reporting.formatting -->
<g id="node19" class="node">
<title>oscura.reporting.formatting</title>
<polygon fill="#77aadd" stroke="#77aadd" points="2571.82,-252 2346.82,-252 2346.82,-216 2571.82,-216 2571.82,-252"/>
<text text-anchor="middle" x="2459.32" y="-230.3" font-family="Times,serif" font-size="14.00">oscura.reporting.formatting</text>
</g>
<!-- oscura.reporting&#45;&gt;oscura.reporting.formatting -->
<g id="edge11" class="edge">
<title>oscura.reporting&#45;&gt;oscura.reporting.formatting</title>
<path fill="none" stroke="black" d="M1600.46,-20.02C1829.07,-23.61 2524.4,-37.35 2557.32,-72 2597.67,-114.48 2533.62,-176.31 2491.48,-209.63"/>
<polygon fill="black" stroke="black" points="2483.39,-215.9 2488.54,-206.22 2487.34,-212.84 2491.29,-209.77 2491.29,-209.77 2491.29,-209.77 2487.34,-212.84 2494.05,-213.33 2483.39,-215.9 2483.39,-215.9"/>
</g>
<!-- oscura.reporting.html -->
<g id="node23" class="node">
<title>oscura.reporting.html</title>
<polygon fill="#77aadd" stroke="#77aadd" points="1424.32,-252 1242.32,-252 1242.32,-216 1424.32,-216 1424.32,-252"/>
<text text-anchor="middle" x="1333.32" y="-230.3" font-family="Times,serif" font-size="14.00">oscura.reporting.html</text>
</g>
<!-- oscura.reporting&#45;&gt;oscura.reporting.html -->
<g id="edge12" class="edge">
<title>oscura.reporting&#45;&gt;oscura.reporting.html</title>
<path fill="none" stroke="black" d="M1455.86,-23.24C1342.6,-30.53 1129.13,-47.1 1057.32,-72 999.99,-91.88 970.81,-90.97 941.32,-144 933.54,-157.98 930.79,-167.95 941.32,-180 960.24,-201.66 1122.26,-217.67 1231.99,-226.14"/>
<polygon fill="black" stroke="black" points="1242.1,-226.92 1231.79,-230.64 1237.12,-226.54 1232.13,-226.16 1232.13,-226.16 1232.13,-226.16 1237.12,-226.54 1232.48,-221.67 1242.1,-226.92 1242.1,-226.92"/>
</g>
<!-- oscura.reporting.index -->
<g id="node24" class="node">
<title>oscura.reporting.index</title>
<polygon fill="#77aadd" stroke="#77aadd" points="640.32,-180 452.32,-180 452.32,-144 640.32,-144 640.32,-180"/>
<text text-anchor="middle" x="546.32" y="-158.3" font-family="Times,serif" font-size="14.00">oscura.reporting.index</text>
</g>
<!-- oscura.reporting&#45;&gt;oscura.reporting.index -->
<g id="edge13" class="edge">
<title>oscura.reporting&#45;&gt;oscura.reporting.index</title>
<path fill="none" stroke="black" d="M1456.26,-21.51C1288.75,-27.75 883.06,-45.44 827.32,-72 807.45,-81.47 812.49,-97.21 793.32,-108 780.23,-115.36 710.48,-130.01 648.43,-142.05"/>
<polygon fill="black" stroke="black" points="638.54,-143.95 647.51,-137.64 643.45,-143.01 648.36,-142.06 648.36,-142.06 648.36,-142.06 643.45,-143.01 649.22,-146.48 638.54,-143.95 638.54,-143.95"/>
</g>
<!-- oscura.reporting.multichannel -->
<g id="node25" class="node">
<title>oscura.reporting.multichannel</title>
<polygon fill="#77aadd" stroke="#77aadd" points="3396.32,-108 3154.32,-108 3154.32,-72 3396.32,-72 3396.32,-108"/>
<text text-anchor="middle" x="3275.32" y="-86.3" font-family="Times,serif" font-size="14.00">oscura.reporting.multichannel</text>
</g>
<!-- oscura.reporting&#45;&gt;oscura.reporting.multichannel -->
<g id="edge14" class="edge">
<title>oscura.reporting&#45;&gt;oscura.reporting.multichannel</title>
<path fill="none" stroke="black" d="M1600.54,-18.89C1826.66,-19.09 2541.33,-23.7 3143.83,-72.02"/>
<polygon fill="black" stroke="black" points="3154.03,-72.84 3143.7,-76.52 3149.04,-72.44 3144.06,-72.04 3144.06,-72.04 3144.06,-72.04 3149.04,-72.44 3144.42,-67.55 3154.03,-72.84 3154.03,-72.84"/>
</g>
<!-- oscura.reporting.output -->
<g id="node26" class="node">
<title>oscura.reporting.output</title>
<polygon fill="#77aadd" stroke="#77aadd" points="396.32,-252 200.32,-252 200.32,-216 396.32,-216 396.32,-252"/>
<text text-anchor="middle" x="298.32" y="-230.3" font-family="Times,serif" font-size="14.00">oscura.reporting.output</text>
</g>
<!-- oscura.reporting&#45;&gt;oscura.reporting.output -->
<g id="edge15" class="edge">
<title>oscura.reporting&#45;&gt;oscura.reporting.output</title>
<path fill="none" stroke="black" d="M1455.89,-19.39C1198,-21.11 337.55,-30 297.32,-72 263.26,-107.55 276.54,-170.38 288.14,-206.14"/>
<polygon fill="black" stroke="black" points="291.48,-215.88 283.98,-207.88 289.85,-211.15 288.23,-206.42 288.23,-206.42 288.23,-206.42 289.85,-211.15 292.49,-204.96 291.48,-215.88 291.48,-215.88"/>
</g>
<!-- oscura.reporting.pdf -->
<g id="node27" class="node">
<title>oscura.reporting.pdf</title>
<polygon fill="#77aadd" stroke="#77aadd" points="1776.32,-324 1604.32,-324 1604.32,-288 1776.32,-288 1776.32,-324"/>
<text text-anchor="middle" x="1690.32" y="-302.3" font-family="Times,serif" font-size="14.00">oscura.reporting.pdf</text>
</g>
<!-- oscura.reporting&#45;&gt;oscura.reporting.pdf -->
<g id="edge16" class="edge">
<title>oscura.reporting&#45;&gt;oscura.reporting.pdf</title>
<path fill="none" stroke="black" d="M1525.08,-36.1C1518.19,-77.84 1506.61,-186.35 1557.32,-252 1568.05,-265.89 1582.98,-276.16 1598.99,-283.73"/>
<polygon fill="black" stroke="black" points="1608.51,-287.89 1597.54,-288.01 1603.93,-285.89 1599.34,-283.89 1599.34,-283.89 1599.34,-283.89 1603.93,-285.89 1601.14,-279.77 1608.51,-287.89 1608.51,-287.89"/>
</g>
<!-- oscura.reporting.plots -->
<g id="node28" class="node">
<title>oscura.reporting.plots</title>
<polygon fill="#77aadd" stroke="#77aadd" points="250.32,-180 66.32,-180 66.32,-144 250.32,-144 250.32,-180"/>
<text text-anchor="middle" x="158.32" y="-158.3" font-family="Times,serif" font-size="14.00">oscura.reporting.plots</text>
</g>
<!-- oscura.reporting&#45;&gt;oscura.reporting.plots -->
<g id="edge17" class="edge">
<title>oscura.reporting&#45;&gt;oscura.reporting.plots</title>
<path fill="none" stroke="black" d="M1456.25,-18.77C1161.41,-18.16 60.1,-19.42 9.32,-72 -19.73,-102.07 26.48,-125.69 74.9,-141.02"/>
<polygon fill="black" stroke="black" points="84.59,-143.97 73.72,-145.36 79.81,-142.51 75.03,-141.06 75.03,-141.06 75.03,-141.06 79.81,-142.51 76.34,-136.75 84.59,-143.97 84.59,-143.97"/>
</g>
<!-- oscura.reporting.pptx_export -->
<g id="node29" class="node">
<title>oscura.reporting.pptx_export</title>
<polygon fill="#77aadd" stroke="#77aadd" points="2548.32,-108 2314.32,-108 2314.32,-72 2548.32,-72 2548.32,-108"/>
<text text-anchor="middle" x="2431.32" y="-86.3" font-family="Times,serif" font-size="14.00">oscura.reporting.pptx_export</text>
</g>
<!-- oscura.reporting&#45;&gt;oscura.reporting.pptx_export -->
<g id="edge18" class="edge">
<title>oscura.reporting&#45;&gt;oscura.reporting.pptx_export</title>
<path fill="none" stroke="black" d="M1600.39,-22.36C1735.89,-29.01 2038.06,-45.48 2303.83,-71.99"/>
<polygon fill="black" stroke="black" points="2314.06,-73.02 2303.66,-76.5 2309.08,-72.52 2304.11,-72.02 2304.11,-72.02 2304.11,-72.02 2309.08,-72.52 2304.56,-67.55 2314.06,-73.02 2314.06,-73.02"/>
</g>
<!-- oscura.reporting.sections -->
<g id="node32" class="node">
<title>oscura.reporting.sections</title>
<polygon fill="#77aadd" stroke="#77aadd" points="2007.82,-108 1800.82,-108 1800.82,-72 2007.82,-72 2007.82,-108"/>
<text text-anchor="middle" x="1904.32" y="-86.3" font-family="Times,serif" font-size="14.00">oscura.reporting.sections</text>
</g>
<!-- oscura.reporting&#45;&gt;oscura.reporting.sections -->
<g id="edge19" class="edge">
<title>oscura.reporting&#45;&gt;oscura.reporting.sections</title>
<path fill="none" stroke="black" d="M1600.37,-32.41C1657.75,-43.1 1738.78,-58.18 1802.74,-70.09"/>
<polygon fill="black" stroke="black" points="1812.86,-71.97 1802.2,-74.57 1807.94,-71.06 1803.03,-70.14 1803.03,-70.14 1803.03,-70.14 1807.94,-71.06 1803.85,-65.72 1812.86,-71.97 1812.86,-71.97"/>
</g>
<!-- oscura.reporting.standards -->
<g id="node33" class="node">
<title>oscura.reporting.standards</title>
<polygon fill="#77aadd" stroke="#77aadd" points="2824.32,-108 2604.32,-108 2604.32,-72 2824.32,-72 2824.32,-108"/>
<text text-anchor="middle" x="2714.32" y="-86.3" font-family="Times,serif" font-size="14.00">oscura.reporting.standards</text>
</g>
<!-- oscura.reporting&#45;&gt;oscura.reporting.standards -->
<g id="edge20" class="edge">
<title>oscura.reporting&#45;&gt;oscura.reporting.standards</title>
<path fill="none" stroke="black" d="M1600.58,-20.45C1772.46,-24.38 2219.03,-37.35 2590.32,-72 2591.59,-72.12 2592.88,-72.24 2594.17,-72.37"/>
<polygon fill="black" stroke="black" points="2604.17,-73.4 2593.76,-76.85 2599.19,-72.88 2594.22,-72.37 2594.22,-72.37 2594.22,-72.37 2599.19,-72.88 2594.68,-67.9 2604.17,-73.4 2604.17,-73.4"/>
</g>
<!-- oscura.reporting.summary_generator -->
<g id="node34" class="node">
<title>oscura.reporting.summary_generator</title>
<polygon fill="#77aadd" stroke="#77aadd" points="3135.82,-108 2842.82,-108 2842.82,-72 3135.82,-72 3135.82,-108"/>
<text text-anchor="middle" x="2989.32" y="-86.3" font-family="Times,serif" font-size="14.00">oscura.reporting.summary_generator</text>
</g>
<!-- oscura.reporting&#45;&gt;oscura.reporting.summary_generator -->
<g id="edge21" class="edge">
<title>oscura.reporting&#45;&gt;oscura.reporting.summary_generator</title>
<path fill="none" stroke="black" d="M1600.56,-20.21C1796.77,-23.87 2356.12,-36.76 2832.6,-71.98"/>
<polygon fill="black" stroke="black" points="2842.78,-72.74 2832.48,-76.48 2837.8,-72.37 2832.81,-72 2832.81,-72 2832.81,-72 2837.8,-72.37 2833.14,-67.51 2842.78,-72.74 2842.78,-72.74"/>
</g>
<!-- oscura.reporting.tables -->
<g id="node35" class="node">
<title>oscura.reporting.tables</title>
<polygon fill="#77aadd" stroke="#77aadd" points="2464.32,-180 2272.32,-180 2272.32,-144 2464.32,-144 2464.32,-180"/>
<text text-anchor="middle" x="2368.32" y="-158.3" font-family="Times,serif" font-size="14.00">oscura.reporting.tables</text>
</g>
<!-- oscura.reporting&#45;&gt;oscura.reporting.tables -->
<g id="edge22" class="edge">
<title>oscura.reporting&#45;&gt;oscura.reporting.tables</title>
<path fill="none" stroke="black" d="M1600.69,-21.32C1718.04,-26.01 1943.98,-39.1 2016.32,-72 2037.79,-81.76 2034.14,-97.6 2055.32,-108 2064.8,-112.66 2175.22,-130.75 2262.26,-144.51"/>
<polygon fill="black" stroke="black" points="2272.21,-146.08 2261.63,-148.97 2267.27,-145.3 2262.33,-144.53 2262.33,-144.53 2262.33,-144.53 2267.27,-145.3 2263.03,-140.08 2272.21,-146.08 2272.21,-146.08"/>
</g>
<!-- oscura.reporting.template_system -->
<g id="node36" class="node">
<title>oscura.reporting.template_system</title>
<polygon fill="#77aadd" stroke="#77aadd" points="2216.32,-180 1946.32,-180 1946.32,-144 2216.32,-144 2216.32,-180"/>
<text text-anchor="middle" x="2081.32" y="-158.3" font-family="Times,serif" font-size="14.00">oscura.reporting.template_system</text>
</g>
<!-- oscura.reporting&#45;&gt;oscura.reporting.template_system -->
<g id="edge23" class="edge">
<title>oscura.reporting&#45;&gt;oscura.reporting.template_system</title>
<path fill="none" stroke="black" d="M1600.41,-26.2C1646.34,-33.09 1705.9,-46.41 1753.32,-72 1773.79,-83.05 1770.57,-97.47 1791.32,-108 1817.36,-121.22 1877.84,-133.19 1936.86,-142.39"/>
<polygon fill="black" stroke="black" points="1947.08,-143.96 1936.52,-146.89 1942.14,-143.2 1937.2,-142.44 1937.2,-142.44 1937.2,-142.44 1942.14,-143.2 1937.88,-137.99 1947.08,-143.96 1947.08,-143.96"/>
</g>
<!-- oscura.reporting.advanced -->
<g id="node2" class="node">
<title>oscura.reporting.advanced</title>
<polygon fill="#77aadd" stroke="#77aadd" points="2738.32,-36 2522.32,-36 2522.32,0 2738.32,0 2738.32,-36"/>
<text text-anchor="middle" x="2630.32" y="-14.3" font-family="Times,serif" font-size="14.00">oscura.reporting.advanced</text>
</g>
<!-- oscura.reporting.analyze&#45;&gt;oscura.reporting.config -->
<g id="edge24" class="edge">
<title>oscura.reporting.analyze&#45;&gt;oscura.reporting.config</title>
<path fill="none" stroke="black" d="M581.55,-107.38C520.31,-118.28 452.45,-132.63 443.32,-144 412.64,-182.19 429.44,-243.26 443.19,-278.18"/>
<polygon fill="black" stroke="black" points="447.12,-287.71 439.15,-280.18 445.21,-283.09 443.31,-278.47 443.31,-278.47 443.31,-278.47 445.21,-283.09 447.46,-276.75 447.12,-287.71 447.12,-287.71"/>
</g>
<!-- oscura.reporting.analyze&#45;&gt;oscura.reporting.engine -->
<g id="edge25" class="edge">
<title>oscura.reporting.analyze&#45;&gt;oscura.reporting.engine</title>
<path fill="none" stroke="black" d="M701.61,-108.3C710.75,-116.95 721.96,-127.55 731.92,-136.97"/>
<polygon fill="black" stroke="black" points="739.23,-143.9 728.88,-140.29 735.6,-140.46 731.97,-137.02 731.97,-137.02 731.97,-137.02 735.6,-140.46 735.06,-133.75 739.23,-143.9 739.23,-143.9"/>
</g>
<!-- oscura.reporting.analyze&#45;&gt;oscura.reporting.index -->
<g id="edge26" class="edge">
<title>oscura.reporting.analyze&#45;&gt;oscura.reporting.index</title>
<path fill="none" stroke="black" d="M649.8,-108.12C631.47,-117.49 608.58,-129.19 588.99,-139.2"/>
<polygon fill="black" stroke="black" points="579.96,-143.81 586.82,-135.25 584.41,-141.54 588.86,-139.26 588.86,-139.26 588.86,-139.26 584.41,-141.54 590.91,-143.27 579.96,-143.81 579.96,-143.81"/>
</g>
<!-- oscura.reporting.analyze&#45;&gt;oscura.reporting.output -->
<g id="edge27" class="edge">
<title>oscura.reporting.analyze&#45;&gt;oscura.reporting.output</title>
<path fill="none" stroke="black" d="M583.18,-108.06C511.98,-120.59 426.24,-136.67 410.32,-144 375.96,-159.82 342.84,-188.32 321.65,-208.81"/>
<polygon fill="black" stroke="black" points="314.4,-215.96 318.36,-205.73 317.96,-212.45 321.52,-208.93 321.52,-208.93 321.52,-208.93 317.96,-212.45 324.68,-212.14 314.4,-215.96 314.4,-215.96"/>
</g>
<!-- oscura.reporting.analyze&#45;&gt;oscura.reporting.plots -->
<g id="edge28" class="edge">
<title>oscura.reporting.analyze&#45;&gt;oscura.reporting.plots</title>
<path fill="none" stroke="black" d="M581.71,-106.66C578.54,-107.12 575.4,-107.57 572.32,-108 466.13,-122.93 344.37,-138.31 260.52,-148.63"/>
<polygon fill="black" stroke="black" points="250.48,-149.86 259.86,-144.17 255.45,-149.25 260.41,-148.64 260.41,-148.64 260.41,-148.64 255.45,-149.25 260.96,-153.11 250.48,-149.86 250.48,-149.86"/>
</g>
<!-- oscura.reporting.batch&#45;&gt;oscura.reporting.core -->
<g id="edge29" class="edge">
<title>oscura.reporting.batch&#45;&gt;oscura.reporting.core</title>
<path fill="none" stroke="black" d="M1736.28,-108.09C1773.29,-117.27 1810.74,-129.65 1822.32,-144 1870.54,-203.79 1858.41,-302.46 1848.79,-349.89"/>
<polygon fill="black" stroke="black" points="1846.68,-359.74 1844.38,-349.01 1847.73,-354.85 1848.78,-349.96 1848.78,-349.96 1848.78,-349.96 1847.73,-354.85 1853.18,-350.9 1846.68,-359.74 1846.68,-359.74"/>
</g>
<!-- oscura.reporting.batch&#45;&gt;oscura.reporting.formatting -->
<g id="edge30" class="edge">
<title>oscura.reporting.batch&#45;&gt;oscura.reporting.formatting</title>
<path fill="none" stroke="black" d="M1738.55,-108.03C1802.48,-120.72 1880.08,-137.03 1894.32,-144 1916.7,-154.96 1914.35,-170.31 1937.32,-180 2006.9,-209.35 2205.32,-222.91 2336.5,-228.83"/>
<polygon fill="black" stroke="black" points="2346.61,-229.27 2336.42,-233.33 2341.61,-229.05 2336.62,-228.83 2336.62,-228.83 2336.62,-228.83 2341.61,-229.05 2336.82,-224.34 2346.61,-229.27 2346.61,-229.27"/>
</g>
<!-- oscura.reporting.batch&#45;&gt;oscura.reporting.html -->
<g id="edge31" class="edge">
<title>oscura.reporting.batch&#45;&gt;oscura.reporting.html</title>
<path fill="none" stroke="black" d="M1627.47,-108.17C1600.46,-127.8 1553.57,-159.83 1509.32,-180 1479.58,-193.56 1445.47,-204.75 1415.24,-213.3"/>
<polygon fill="black" stroke="black" points="1405.57,-215.98 1414,-208.97 1410.39,-214.65 1415.21,-213.31 1415.21,-213.31 1415.21,-213.31 1410.39,-214.65 1416.41,-217.65 1405.57,-215.98 1405.57,-215.98"/>
</g>
<!-- oscura.reporting.batch&#45;&gt;oscura.reporting.pdf -->
<g id="edge32" class="edge">
<title>oscura.reporting.batch&#45;&gt;oscura.reporting.pdf</title>
<path fill="none" stroke="black" d="M1738.24,-108.02C1774.91,-117.07 1811.51,-129.36 1822.32,-144 1850.82,-182.62 1849.2,-212.24 1822.32,-252 1812.98,-265.81 1799.39,-276.02 1784.44,-283.57"/>
<polygon fill="black" stroke="black" points="1774.99,-287.94 1782.18,-279.66 1779.53,-285.84 1784.06,-283.74 1784.06,-283.74 1784.06,-283.74 1779.53,-285.84 1785.95,-287.83 1774.99,-287.94 1774.99,-287.94"/>
</g>
<!-- oscura.reporting.batch&#45;&gt;oscura.reporting.tables -->
<g id="edge33" class="edge">
<title>oscura.reporting.batch&#45;&gt;oscura.reporting.tables</title>
<path fill="none" stroke="black" d="M1744.69,-102.87C1760.25,-104.69 1776.23,-106.47 1791.32,-108 1983.87,-127.59 2032.74,-124.57 2225.32,-144 2237.29,-145.21 2249.81,-146.56 2262.26,-147.97"/>
<polygon fill="black" stroke="black" points="2272.22,-149.1 2261.77,-152.44 2267.25,-148.53 2262.28,-147.97 2262.28,-147.97 2262.28,-147.97 2267.25,-148.53 2262.79,-143.5 2272.22,-149.1 2272.22,-149.1"/>
</g>
<!-- oscura.reporting.batch&#45;&gt;oscura.reporting.template_system -->
<g id="edge34" class="edge">
<title>oscura.reporting.batch&#45;&gt;oscura.reporting.template_system</title>
<path fill="none" stroke="black" d="M1744.37,-106.28C1809.64,-116.88 1896.99,-131.06 1966.4,-142.34"/>
<polygon fill="black" stroke="black" points="1976.5,-143.98 1965.91,-146.82 1971.57,-143.18 1966.63,-142.37 1966.63,-142.37 1966.63,-142.37 1971.57,-143.18 1967.35,-137.93 1976.5,-143.98 1976.5,-143.98"/>
</g>
<!-- oscura.reporting.comparison&#45;&gt;oscura.reporting.core -->
<g id="edge35" class="edge">
<title>oscura.reporting.comparison&#45;&gt;oscura.reporting.core</title>
<path fill="none" stroke="black" d="M2293.18,-108C2373.14,-120.59 2467.28,-136.77 2473.32,-144 2483.57,-156.28 2483.08,-167.32 2473.32,-180 2435.18,-229.55 2396.36,-195.41 2337.32,-216 2224.18,-255.45 2204.37,-287.29 2090.32,-324 2042.29,-339.46 1987.57,-351.7 1941.77,-360.5"/>
<polygon fill="black" stroke="black" points="1931.84,-362.38 1940.82,-356.1 1936.75,-361.45 1941.66,-360.52 1941.66,-360.52 1941.66,-360.52 1936.75,-361.45 1942.5,-364.94 1931.84,-362.38 1931.84,-362.38"/>
</g>
<!-- oscura.reporting.comparison&#45;&gt;oscura.reporting.formatting -->
<g id="edge36" class="edge">
<title>oscura.reporting.comparison&#45;&gt;oscura.reporting.formatting</title>
<path fill="none" stroke="black" d="M2295.81,-108.01C2388.14,-121.89 2502.78,-139.84 2506.32,-144 2522.91,-163.51 2505.1,-189.84 2486.84,-208.8"/>
<polygon fill="black" stroke="black" points="2479.63,-215.93 2483.58,-205.7 2483.18,-212.41 2486.74,-208.9 2486.74,-208.9 2486.74,-208.9 2483.18,-212.41 2489.9,-212.1 2479.63,-215.93 2479.63,-215.93"/>
</g>
<!-- oscura.reporting.comparison&#45;&gt;oscura.reporting.tables -->
<g id="edge37" class="edge">
<title>oscura.reporting.comparison&#45;&gt;oscura.reporting.tables</title>
<path fill="none" stroke="black" d="M2226.31,-108.12C2252.46,-117.86 2285.4,-130.13 2312.97,-140.39"/>
<polygon fill="black" stroke="black" points="2322.48,-143.93 2311.53,-144.66 2317.79,-142.19 2313.1,-140.44 2313.1,-140.44 2313.1,-140.44 2317.79,-142.19 2314.67,-136.23 2322.48,-143.93 2322.48,-143.93"/>
</g>
<!-- oscura.reporting.content -->
<g id="node9" class="node">
<title>oscura.reporting.content</title>
<polygon fill="#77aadd" stroke="#77aadd" points="3261.82,-180 3058.82,-180 3058.82,-144 3261.82,-144 3261.82,-180"/>
<text text-anchor="middle" x="3160.32" y="-158.3" font-family="Times,serif" font-size="14.00">oscura.reporting.content</text>
</g>
<!-- oscura.reporting.content.executive -->
<g id="node10" class="node">
<title>oscura.reporting.content.executive</title>
<polygon fill="#77aadd" stroke="#77aadd" points="2864.82,-252 2589.82,-252 2589.82,-216 2864.82,-216 2864.82,-252"/>
<text text-anchor="middle" x="2727.32" y="-230.3" font-family="Times,serif" font-size="14.00">oscura.reporting.content.executive</text>
</g>
<!-- oscura.reporting.content&#45;&gt;oscura.reporting.content.executive -->
<g id="edge38" class="edge">
<title>oscura.reporting.content&#45;&gt;oscura.reporting.content.executive</title>
<path fill="none" stroke="black" d="M3058.8,-179.41C2994.13,-189.87 2910.17,-203.44 2842.94,-214.31"/>
<polygon fill="black" stroke="black" points="2832.72,-215.96 2841.87,-209.92 2837.66,-215.16 2842.59,-214.36 2842.59,-214.36 2842.59,-214.36 2837.66,-215.16 2843.31,-218.81 2832.72,-215.96 2832.72,-215.96"/>
</g>
<!-- oscura.reporting.content.filtering -->
<g id="node11" class="node">
<title>oscura.reporting.content.filtering</title>
<polygon fill="#77aadd" stroke="#77aadd" points="3430.32,-252 3166.32,-252 3166.32,-216 3430.32,-216 3430.32,-252"/>
<text text-anchor="middle" x="3298.32" y="-230.3" font-family="Times,serif" font-size="14.00">oscura.reporting.content.filtering</text>
</g>
<!-- oscura.reporting.content&#45;&gt;oscura.reporting.content.filtering -->
<g id="edge39" class="edge">
<title>oscura.reporting.content&#45;&gt;oscura.reporting.content.filtering</title>
<path fill="none" stroke="black" d="M3194.07,-180.12C3212.54,-189.49 3235.6,-201.19 3255.33,-211.2"/>
<polygon fill="black" stroke="black" points="3264.43,-215.81 3253.47,-215.3 3259.97,-213.55 3255.51,-211.29 3255.51,-211.29 3255.51,-211.29 3259.97,-213.55 3257.54,-207.27 3264.43,-215.81 3264.43,-215.81"/>
</g>
<!-- oscura.reporting.content.minimal -->
<g id="node12" class="node">
<title>oscura.reporting.content.minimal</title>
<polygon fill="#77aadd" stroke="#77aadd" points="3147.82,-252 2882.82,-252 2882.82,-216 3147.82,-216 3147.82,-252"/>
<text text-anchor="middle" x="3015.32" y="-230.3" font-family="Times,serif" font-size="14.00">oscura.reporting.content.minimal</text>
</g>
<!-- oscura.reporting.content&#45;&gt;oscura.reporting.content.minimal -->
<g id="edge40" class="edge">
<title>oscura.reporting.content&#45;&gt;oscura.reporting.content.minimal</title>
<path fill="none" stroke="black" d="M3124.84,-180.12C3105.2,-189.61 3080.59,-201.49 3059.68,-211.58"/>
<polygon fill="black" stroke="black" points="3050.67,-215.93 3057.72,-207.53 3055.17,-213.76 3059.68,-211.58 3059.68,-211.58 3059.68,-211.58 3055.17,-213.76 3061.63,-215.64 3050.67,-215.93 3050.67,-215.93"/>
</g>
<!-- oscura.reporting.content.verbosity -->
<g id="node13" class="node">
<title>oscura.reporting.content.verbosity</title>
<polygon fill="#77aadd" stroke="#77aadd" points="3530.32,-324 3256.32,-324 3256.32,-288 3530.32,-288 3530.32,-324"/>
<text text-anchor="middle" x="3393.32" y="-302.3" font-family="Times,serif" font-size="14.00">oscura.reporting.content.verbosity</text>
</g>
<!-- oscura.reporting.content&#45;&gt;oscura.reporting.content.verbosity -->
<g id="edge41" class="edge">
<title>oscura.reporting.content&#45;&gt;oscura.reporting.content.verbosity</title>
<path fill="none" stroke="black" d="M3261.9,-168.96C3332.12,-175.44 3416.8,-188.8 3439.32,-216 3455.57,-235.63 3438.14,-261.95 3420.27,-280.87"/>
<polygon fill="black" stroke="black" points="3413.2,-287.98 3417.06,-277.72 3416.73,-284.43 3420.25,-280.89 3420.25,-280.89 3420.25,-280.89 3416.73,-284.43 3423.44,-284.06 3413.2,-287.98 3413.2,-287.98"/>
</g>
<!-- oscura.reporting.formatting.standards -->
<g id="node22" class="node">
<title>oscura.reporting.formatting.standards</title>
<polygon fill="#77aadd" stroke="#77aadd" points="3237.82,-324 2936.82,-324 2936.82,-288 3237.82,-288 3237.82,-324"/>
<text text-anchor="middle" x="3087.32" y="-302.3" font-family="Times,serif" font-size="14.00">oscura.reporting.formatting.standards</text>
</g>
<!-- oscura.reporting.content.filtering&#45;&gt;oscura.reporting.formatting.standards -->
<g id="edge42" class="edge">
<title>oscura.reporting.content.filtering&#45;&gt;oscura.reporting.formatting.standards</title>
<path fill="none" stroke="black" d="M3246.97,-252.03C3217.36,-261.86 3179.94,-274.27 3148.77,-284.61"/>
<polygon fill="black" stroke="black" points="3138.89,-287.89 3146.97,-280.47 3143.64,-286.31 3148.38,-284.74 3148.38,-284.74 3148.38,-284.74 3143.64,-286.31 3149.8,-289.01 3138.89,-287.89 3138.89,-287.89"/>
</g>
<!-- oscura.reporting.formatting.numbers -->
<g id="node21" class="node">
<title>oscura.reporting.formatting.numbers</title>
<polygon fill="#77aadd" stroke="#77aadd" points="2918.82,-324 2625.82,-324 2625.82,-288 2918.82,-288 2918.82,-324"/>
<text text-anchor="middle" x="2772.32" y="-302.3" font-family="Times,serif" font-size="14.00">oscura.reporting.formatting.numbers</text>
</g>
<!-- oscura.reporting.content.minimal&#45;&gt;oscura.reporting.formatting.numbers -->
<g id="edge43" class="edge">
<title>oscura.reporting.content.minimal&#45;&gt;oscura.reporting.formatting.numbers</title>
<path fill="none" stroke="black" d="M2956.18,-252.03C2921.64,-261.99 2877.87,-274.59 2841.7,-285.01"/>
<polygon fill="black" stroke="black" points="2831.71,-287.89 2840.08,-280.8 2836.52,-286.51 2841.32,-285.12 2841.32,-285.12 2841.32,-285.12 2836.52,-286.51 2842.57,-289.45 2831.71,-287.89 2831.71,-287.89"/>
</g>
<!-- oscura.reporting.content.verbosity&#45;&gt;oscura.reporting.core -->
<g id="edge64" class="edge">
<title>oscura.reporting.content.verbosity&#45;&gt;oscura.reporting.core</title>
<path fill="none" stroke="black" stroke-dasharray="5,2" d="M3256.02,-323.22C3252.76,-323.49 3249.52,-323.75 3246.32,-324 2758.03,-361.39 2172.11,-372.73 1942,-375.89"/>
<polygon fill="black" stroke="black" points="1931.97,-376.02 1941.91,-371.39 1936.97,-375.95 1941.97,-375.89 1941.97,-375.89 1941.97,-375.89 1936.97,-375.95 1942.03,-380.39 1931.97,-376.02 1931.97,-376.02"/>
</g>
<!-- oscura.reporting.core_formats.multi_format -->
<g id="node16" class="node">
<title>oscura.reporting.core_formats.multi_format</title>
<polygon fill="#77aadd" stroke="#77aadd" points="1288.32,-180 950.32,-180 950.32,-144 1288.32,-144 1288.32,-180"/>
<text text-anchor="middle" x="1119.32" y="-158.3" font-family="Times,serif" font-size="14.00">oscura.reporting.core_formats.multi_format</text>
</g>
<!-- oscura.reporting.core_formats&#45;&gt;oscura.reporting.core_formats.multi_format -->
<g id="edge44" class="edge">
<title>oscura.reporting.core_formats&#45;&gt;oscura.reporting.core_formats.multi_format</title>
<path fill="none" stroke="black" d="M1170.51,-108.3C1162.19,-116.86 1152.01,-127.34 1142.93,-136.7"/>
<polygon fill="black" stroke="black" points="1135.93,-143.9 1139.67,-133.59 1139.42,-140.31 1142.9,-136.72 1142.9,-136.72 1142.9,-136.72 1139.42,-140.31 1146.13,-139.86 1135.93,-143.9 1135.93,-143.9"/>
</g>
<!-- oscura.reporting.core_formats.multi_format&#45;&gt;oscura.reporting.core -->
<g id="edge65" class="edge">
<title>oscura.reporting.core_formats.multi_format&#45;&gt;oscura.reporting.core</title>
<path fill="none" stroke="black" stroke-dasharray="5,2" d="M1138.57,-180.08C1160.52,-199.06 1197.95,-229.94 1233.32,-252 1295.38,-290.72 1311.09,-303.53 1381.32,-324 1502.39,-359.29 1647.78,-371.24 1742.47,-375.2"/>
<polygon fill="black" stroke="black" points="1752.61,-375.6 1742.44,-379.7 1747.62,-375.4 1742.62,-375.2 1742.62,-375.2 1742.62,-375.2 1747.62,-375.4 1742.8,-370.71 1752.61,-375.6 1752.61,-375.6"/>
</g>
<!-- oscura.reporting.core_formats.multi_format&#45;&gt;oscura.reporting.html -->
<g id="edge45" class="edge">
<title>oscura.reporting.core_formats.multi_format&#45;&gt;oscura.reporting.html</title>
<path fill="none" stroke="black" d="M1171.39,-180.03C1201.55,-189.9 1239.7,-202.38 1271.39,-212.75"/>
<polygon fill="black" stroke="black" points="1281.01,-215.89 1270.1,-217.06 1276.25,-214.33 1271.5,-212.78 1271.5,-212.78 1271.5,-212.78 1276.25,-214.33 1272.9,-208.5 1281.01,-215.89 1281.01,-215.89"/>
</g>
<!-- oscura.reporting.renderers.pdf -->
<g id="node31" class="node">
<title>oscura.reporting.renderers.pdf</title>
<polygon fill="#77aadd" stroke="#77aadd" points="1813.82,-252 1566.82,-252 1566.82,-216 1813.82,-216 1813.82,-252"/>
<text text-anchor="middle" x="1690.32" y="-230.3" font-family="Times,serif" font-size="14.00">oscura.reporting.renderers.pdf</text>
</g>
<!-- oscura.reporting.core_formats.multi_format&#45;&gt;oscura.reporting.renderers.pdf -->
<g id="edge46" class="edge">
<title>oscura.reporting.core_formats.multi_format&#45;&gt;oscura.reporting.renderers.pdf</title>
<path fill="none" stroke="black" d="M1258.27,-180.03C1349.11,-191.17 1467.11,-205.64 1556.83,-216.64"/>
<polygon fill="black" stroke="black" points="1566.8,-217.86 1556.33,-221.11 1561.84,-217.25 1556.87,-216.64 1556.87,-216.64 1556.87,-216.64 1561.84,-217.25 1557.42,-212.17 1566.8,-217.86 1566.8,-217.86"/>
</g>
<!-- oscura.reporting.engine&#45;&gt;oscura.reporting.config -->
<g id="edge47" class="edge">
<title>oscura.reporting.engine&#45;&gt;oscura.reporting.config</title>
<path fill="none" stroke="black" d="M720.89,-180.13C665.79,-206.04 561.32,-255.16 501.14,-283.45"/>
<polygon fill="black" stroke="black" points="491.87,-287.81 499.01,-279.48 496.4,-285.68 500.92,-283.56 500.92,-283.56 500.92,-283.56 496.4,-285.68 502.84,-287.63 491.87,-287.81 491.87,-287.81"/>
</g>
<!-- oscura.reporting.export&#45;&gt;oscura.reporting.core -->
<g id="edge66" class="edge">
<title>oscura.reporting.export&#45;&gt;oscura.reporting.core</title>
<path fill="none" stroke="black" stroke-dasharray="5,2" d="M1412.34,-180.13C1423.15,-199.44 1442.8,-230.87 1466.32,-252 1543.39,-321.25 1659.94,-352.28 1742.82,-366.1"/>
<polygon fill="black" stroke="black" points="1752.76,-367.7 1742.17,-370.55 1747.82,-366.9 1742.89,-366.11 1742.89,-366.11 1742.89,-366.11 1747.82,-366.9 1743.6,-361.66 1752.76,-367.7 1752.76,-367.7"/>
</g>
<!-- oscura.reporting.export&#45;&gt;oscura.reporting.html -->
<g id="edge48" class="edge">
<title>oscura.reporting.export&#45;&gt;oscura.reporting.html</title>
<path fill="none" stroke="black" d="M1386.01,-180.3C1377.45,-188.86 1366.97,-199.34 1357.62,-208.7"/>
<polygon fill="black" stroke="black" points="1350.42,-215.9 1354.31,-205.64 1353.96,-212.36 1357.49,-208.82 1357.49,-208.82 1357.49,-208.82 1353.96,-212.36 1360.67,-212.01 1350.42,-215.9 1350.42,-215.9"/>
</g>
<!-- oscura.reporting.export&#45;&gt;oscura.reporting.pdf -->
<g id="edge49" class="edge">
<title>oscura.reporting.export&#45;&gt;oscura.reporting.pdf</title>
<path fill="none" stroke="black" d="M1423.77,-180.1C1453.03,-204.46 1504.42,-246.8 1514.32,-252 1541.1,-266.08 1572.18,-277.01 1600.71,-285.18"/>
<polygon fill="black" stroke="black" points="1610.69,-287.95 1599.85,-289.61 1605.87,-286.61 1601.05,-285.27 1601.05,-285.27 1601.05,-285.27 1605.87,-286.61 1602.26,-280.94 1610.69,-287.95 1610.69,-287.95"/>
</g>
<!-- oscura.reporting.formatting.emphasis -->
<g id="node20" class="node">
<title>oscura.reporting.formatting.emphasis</title>
<polygon fill="#77aadd" stroke="#77aadd" points="2607.82,-324 2310.82,-324 2310.82,-288 2607.82,-288 2607.82,-324"/>
<text text-anchor="middle" x="2459.32" y="-302.3" font-family="Times,serif" font-size="14.00">oscura.reporting.formatting.emphasis</text>
</g>
<!-- oscura.reporting.formatting&#45;&gt;oscura.reporting.formatting.emphasis -->
<g id="edge50" class="edge">
<title>oscura.reporting.formatting&#45;&gt;oscura.reporting.formatting.emphasis</title>
<path fill="none" stroke="black" d="M2459.32,-252.3C2459.32,-260.02 2459.32,-269.29 2459.32,-277.89"/>
<polygon fill="black" stroke="black" points="2459.32,-287.9 2454.82,-277.9 2459.32,-282.9 2459.32,-277.9 2459.32,-277.9 2459.32,-277.9 2459.32,-282.9 2463.82,-277.9 2459.32,-287.9 2459.32,-287.9"/>
</g>
<!-- oscura.reporting.formatting&#45;&gt;oscura.reporting.formatting.numbers -->
<g id="edge51" class="edge">
<title>oscura.reporting.formatting&#45;&gt;oscura.reporting.formatting.numbers</title>
<path fill="none" stroke="black" d="M2535.48,-252.03C2581.01,-262.22 2638.99,-275.18 2686.18,-285.74"/>
<polygon fill="black" stroke="black" points="2696.08,-287.95 2685.34,-290.16 2691.2,-286.86 2686.32,-285.77 2686.32,-285.77 2686.32,-285.77 2691.2,-286.86 2687.3,-281.38 2696.08,-287.95 2696.08,-287.95"/>
</g>
<!-- oscura.reporting.formatting&#45;&gt;oscura.reporting.formatting.standards -->
<g id="edge52" class="edge">
<title>oscura.reporting.formatting&#45;&gt;oscura.reporting.formatting.standards</title>
<path fill="none" stroke="black" d="M2572.01,-250.97C2574.81,-251.32 2577.58,-251.67 2580.32,-252 2730.92,-270.39 2771.39,-271.76 2926.21,-287.89"/>
<polygon fill="black" stroke="black" points="2936.57,-288.97 2926.16,-292.41 2931.6,-288.45 2926.63,-287.93 2926.63,-287.93 2926.63,-287.93 2931.6,-288.45 2927.1,-283.46 2936.57,-288.97 2936.57,-288.97"/>
</g>
<!-- oscura.reporting.html&#45;&gt;oscura.reporting.core -->
<g id="edge67" class="edge">
<title>oscura.reporting.html&#45;&gt;oscura.reporting.core</title>
<path fill="none" stroke="black" stroke-dasharray="5,2" d="M1347.67,-252.08C1366.25,-272.9 1400.73,-307.36 1438.32,-324 1491.13,-347.38 1640.98,-362.5 1742.56,-370.38"/>
<polygon fill="black" stroke="black" points="1752.54,-371.15 1742.22,-374.87 1747.55,-370.77 1742.57,-370.38 1742.57,-370.38 1742.57,-370.38 1747.55,-370.77 1742.91,-365.9 1752.54,-371.15 1752.54,-371.15"/>
</g>
<!-- oscura.reporting.index&#45;&gt;oscura.reporting.config -->
<g id="edge68" class="edge">
<title>oscura.reporting.index&#45;&gt;oscura.reporting.config</title>
<path fill="none" stroke="black" stroke-dasharray="5,2" d="M535.34,-180.13C519.56,-204.76 490.33,-250.36 471.9,-279.12"/>
<polygon fill="black" stroke="black" points="466.33,-287.81 467.94,-276.96 469.03,-283.6 471.73,-279.39 471.73,-279.39 471.73,-279.39 469.03,-283.6 475.52,-281.82 466.33,-287.81 466.33,-287.81"/>
</g>
<!-- oscura.reporting.index&#45;&gt;oscura.reporting.output -->
<g id="edge69" class="edge">
<title>oscura.reporting.index&#45;&gt;oscura.reporting.output</title>
<path fill="none" stroke="black" stroke-dasharray="5,2" d="M485.97,-180.03C450.56,-190.03 405.66,-202.7 368.66,-213.15"/>
<polygon fill="black" stroke="black" points="358.94,-215.89 367.34,-208.84 363.75,-214.53 368.56,-213.17 368.56,-213.17 368.56,-213.17 363.75,-214.53 369.78,-217.5 358.94,-215.89 358.94,-215.89"/>
</g>
<!-- oscura.reporting.multichannel&#45;&gt;oscura.reporting.core -->
<g id="edge53" class="edge">
<title>oscura.reporting.multichannel&#45;&gt;oscura.reporting.core</title>
<path fill="none" stroke="black" d="M3322.8,-108.08C3419.56,-145.24 3623.56,-237.09 3539.32,-324 3511.38,-352.83 2301.48,-370.98 1942.01,-375.74"/>
<polygon fill="black" stroke="black" points="1931.88,-375.88 1941.82,-371.25 1936.88,-375.81 1941.88,-375.74 1941.88,-375.74 1941.88,-375.74 1936.88,-375.81 1941.94,-380.24 1931.88,-375.88 1931.88,-375.88"/>
</g>
<!-- oscura.reporting.multichannel&#45;&gt;oscura.reporting.formatting -->
<g id="edge54" class="edge">
<title>oscura.reporting.multichannel&#45;&gt;oscura.reporting.formatting</title>
<path fill="none" stroke="black" d="M3177.29,-108.06C3023.67,-134.79 2727.28,-186.37 2567.57,-214.16"/>
<polygon fill="black" stroke="black" points="2557.25,-215.96 2566.33,-209.81 2562.18,-215.1 2567.1,-214.24 2567.1,-214.24 2567.1,-214.24 2562.18,-215.1 2567.88,-218.68 2557.25,-215.96 2557.25,-215.96"/>
</g>
<!-- oscura.reporting.multichannel&#45;&gt;oscura.reporting.tables -->
<g id="edge55" class="edge">
<title>oscura.reporting.multichannel&#45;&gt;oscura.reporting.tables</title>
<path fill="none" stroke="black" d="M3154.01,-107.01C3150.75,-107.35 3147.51,-107.68 3144.32,-108 2905.4,-131.64 2624.06,-148.01 2474.45,-155.8"/>
<polygon fill="black" stroke="black" points="2464.35,-156.32 2474.1,-151.31 2469.34,-156.07 2474.33,-155.81 2474.33,-155.81 2474.33,-155.81 2469.34,-156.07 2474.57,-160.3 2464.35,-156.32 2464.35,-156.32"/>
</g>
<!-- oscura.reporting.output&#45;&gt;oscura.reporting.config -->
<g id="edge56" class="edge">
<title>oscura.reporting.output&#45;&gt;oscura.reporting.config</title>
<path fill="none" stroke="black" d="M336.72,-252.12C358.19,-261.69 385.11,-273.7 407.88,-283.85"/>
<polygon fill="black" stroke="black" points="417.03,-287.93 406.07,-287.97 412.47,-285.9 407.9,-283.86 407.9,-283.86 407.9,-283.86 412.47,-285.9 409.73,-279.75 417.03,-287.93 417.03,-287.93"/>
</g>
<!-- oscura.reporting.pdf&#45;&gt;oscura.reporting.core -->
<g id="edge70" class="edge">
<title>oscura.reporting.pdf&#45;&gt;oscura.reporting.core</title>
<path fill="none" stroke="black" stroke-dasharray="5,2" d="M1727.5,-324.12C1748.19,-333.65 1774.12,-345.59 1796.1,-355.72"/>
<polygon fill="black" stroke="black" points="1805.25,-359.93 1794.29,-359.84 1800.71,-357.84 1796.17,-355.75 1796.17,-355.75 1796.17,-355.75 1800.71,-357.84 1798.05,-351.66 1805.25,-359.93 1805.25,-359.93"/>
</g>
<!-- oscura.reporting.plots&#45;&gt;oscura.reporting.config -->
<g id="edge57" class="edge">
<title>oscura.reporting.plots&#45;&gt;oscura.reporting.config</title>
<path fill="none" stroke="black" d="M159.77,-180.22C162.45,-200.53 170.01,-233.8 191.32,-252 215.23,-272.43 286.93,-286.02 349.59,-294.32"/>
<polygon fill="black" stroke="black" points="359.56,-295.61 349.06,-298.79 354.6,-294.97 349.64,-294.33 349.64,-294.33 349.64,-294.33 354.6,-294.97 350.22,-289.87 359.56,-295.61 359.56,-295.61"/>
</g>
<!-- oscura.reporting.plots&#45;&gt;oscura.reporting.output -->
<g id="edge71" class="edge">
<title>oscura.reporting.plots&#45;&gt;oscura.reporting.output</title>
<path fill="none" stroke="black" stroke-dasharray="5,2" d="M192.56,-180.12C211.38,-189.53 234.9,-201.29 254.98,-211.33"/>
<polygon fill="black" stroke="black" points="263.94,-215.81 252.98,-215.36 259.46,-213.57 254.99,-211.34 254.99,-211.34 254.99,-211.34 259.46,-213.57 257,-207.31 263.94,-215.81 263.94,-215.81"/>
</g>
<!-- oscura.reporting.renderers -->
<g id="node30" class="node">
<title>oscura.reporting.renderers</title>
<polygon fill="#77aadd" stroke="#77aadd" points="1813.82,-180 1594.82,-180 1594.82,-144 1813.82,-144 1813.82,-180"/>
<text text-anchor="middle" x="1704.32" y="-158.3" font-family="Times,serif" font-size="14.00">oscura.reporting.renderers</text>
</g>
<!-- oscura.reporting.renderers&#45;&gt;oscura.reporting.renderers.pdf -->
<g id="edge58" class="edge">
<title>oscura.reporting.renderers&#45;&gt;oscura.reporting.renderers.pdf</title>
<path fill="none" stroke="black" d="M1700.85,-180.3C1699.31,-188.02 1697.46,-197.29 1695.74,-205.89"/>
<polygon fill="black" stroke="black" points="1693.74,-215.9 1691.29,-205.21 1694.72,-210.99 1695.7,-206.09 1695.7,-206.09 1695.7,-206.09 1694.72,-210.99 1700.11,-206.97 1693.74,-215.9 1693.74,-215.9"/>
</g>
<!-- oscura.reporting.renderers.pdf&#45;&gt;oscura.reporting.core -->
<g id="edge72" class="edge">
<title>oscura.reporting.renderers.pdf&#45;&gt;oscura.reporting.core</title>
<path fill="none" stroke="black" stroke-dasharray="5,2" d="M1731.1,-252.21C1749.08,-261.12 1769.64,-273.25 1785.32,-288 1804.41,-305.96 1819.94,-331.6 1829.94,-350.74"/>
<polygon fill="black" stroke="black" points="1834.53,-359.82 1826,-352.93 1832.28,-355.36 1830.02,-350.9 1830.02,-350.9 1830.02,-350.9 1832.28,-355.36 1834.04,-348.87 1834.53,-359.82 1834.53,-359.82"/>
</g>
<!-- oscura.reporting.renderers.pdf&#45;&gt;oscura.reporting.pdf -->
<g id="edge59" class="edge">
<title>oscura.reporting.renderers.pdf&#45;&gt;oscura.reporting.pdf</title>
<path fill="none" stroke="black" d="M1690.32,-252.3C1690.32,-260.02 1690.32,-269.29 1690.32,-277.89"/>
<polygon fill="black" stroke="black" points="1690.32,-287.9 1685.82,-277.9 1690.32,-282.9 1690.32,-277.9 1690.32,-277.9 1690.32,-277.9 1690.32,-282.9 1694.82,-277.9 1690.32,-287.9 1690.32,-287.9"/>
</g>
<!-- oscura.reporting.sections&#45;&gt;oscura.reporting.core -->
<g id="edge60" class="edge">
<title>oscura.reporting.sections&#45;&gt;oscura.reporting.core</title>
<path fill="none" stroke="black" d="M2008.19,-107.35C2101.27,-122.12 2223.51,-141.87 2225.32,-144 2235.67,-156.2 2233.65,-166.34 2225.32,-180 2163.31,-281.62 2030.31,-333.03 1938.59,-357.39"/>
<polygon fill="black" stroke="black" points="1928.73,-359.94 1937.29,-353.08 1933.57,-358.69 1938.41,-357.43 1938.41,-357.43 1938.41,-357.43 1933.57,-358.69 1939.54,-361.79 1928.73,-359.94 1928.73,-359.94"/>
</g>
<!-- oscura.reporting.sections&#45;&gt;oscura.reporting.tables -->
<g id="edge61" class="edge">
<title>oscura.reporting.sections&#45;&gt;oscura.reporting.tables</title>
<path fill="none" stroke="black" d="M2008.12,-106.41C2078.68,-116.92 2174.15,-131.2 2258.32,-144 2259.58,-144.19 2260.85,-144.39 2262.13,-144.58"/>
<polygon fill="black" stroke="black" points="2272.04,-146.09 2261.47,-149.03 2267.09,-145.34 2262.15,-144.58 2262.15,-144.58 2262.15,-144.58 2267.09,-145.34 2262.83,-140.14 2272.04,-146.09 2272.04,-146.09"/>
</g>
<!-- oscura.reporting.tables&#45;&gt;oscura.reporting.formatting -->
<g id="edge62" class="edge">
<title>oscura.reporting.tables&#45;&gt;oscura.reporting.formatting</title>
<path fill="none" stroke="black" d="M2390.81,-180.3C2402.27,-189.12 2416.37,-199.97 2428.8,-209.53"/>
<polygon fill="black" stroke="black" points="2437.08,-215.9 2426.41,-213.37 2433.12,-212.85 2429.15,-209.8 2429.15,-209.8 2429.15,-209.8 2433.12,-212.85 2431.9,-206.23 2437.08,-215.9 2437.08,-215.9"/>
</g>
<!-- oscura.reporting.templates -->
<g id="node37" class="node">
<title>oscura.reporting.templates</title>
<polygon fill="#77aadd" stroke="#77aadd" points="3880.32,-36 3660.32,-36 3660.32,0 3880.32,0 3880.32,-36"/>
<text text-anchor="middle" x="3770.32" y="-14.3" font-family="Times,serif" font-size="14.00">oscura.reporting.templates</text>
</g>
<!-- oscura.reporting.templates.definition -->
<g id="node38" class="node">
<title>oscura.reporting.templates.definition</title>
<polygon fill="#77aadd" stroke="#77aadd" points="3916.32,-108 3624.32,-108 3624.32,-72 3916.32,-72 3916.32,-108"/>
<text text-anchor="middle" x="3770.32" y="-86.3" font-family="Times,serif" font-size="14.00">oscura.reporting.templates.definition</text>
</g>
<!-- oscura.reporting.templates&#45;&gt;oscura.reporting.templates.definition -->
<g id="edge63" class="edge">
<title>oscura.reporting.templates&#45;&gt;oscura.reporting.templates.definition</title>
<path fill="none" stroke="black" d="M3770.32,-36.3C3770.32,-44.02 3770.32,-53.29 3770.32,-61.89"/>
<polygon fill="black" stroke="black" points="3770.32,-71.9 3765.82,-61.9 3770.32,-66.9 3770.32,-61.9 3770.32,-61.9 3770.32,-61.9 3770.32,-66.9 3774.82,-61.9 3770.32,-71.9 3770.32,-71.9"/>
</g>
</g>
</svg>
